<svg width="1211" height="187" viewBox="0 0 1211 187" fill="none" xmlns="http://www.w3.org/2000/svg">
<mask id="path-1-outside-1_603_182" maskUnits="userSpaceOnUse" x="-1" y="-1" width="1213" height="189" fill="black">
<rect fill="white" x="-1" y="-1" width="1213" height="189"/>
<path d="M0.119142 3.99999H113.619V36H33.8691V79.5H105.619V111.5H33.8691V183H0.119142V3.99999ZM178.273 36V77.5H250.023V109.5H178.273V151H258.023V183H144.523V3.99999H258.023V36H178.273ZM346.305 3.99999H384.805L452.055 183H414.805L400.055 140.25H331.055L316.305 183H279.055L346.305 3.99999ZM389.055 109.25L373.055 64.5L366.555 42.75H364.555L358.055 64.5L342.055 109.25H389.055ZM499.652 183V36H449.652V3.99999H583.402V36H533.402V183H499.652ZM677.904 187C667.404 187 657.821 185.333 649.154 182C640.654 178.5 633.404 173.5 627.404 167C621.404 160.5 616.738 152.667 613.404 143.5C610.071 134.167 608.404 123.583 608.404 111.75V3.99999H642.154V113.75C642.154 119.75 642.904 125.25 644.404 130.25C645.904 135.25 648.154 139.583 651.154 143.25C654.154 146.917 657.904 149.833 662.404 152C666.904 154 672.071 155 677.904 155C683.904 155 689.154 154 693.654 152C698.154 149.833 701.904 146.917 704.904 143.25C707.904 139.583 710.154 135.25 711.654 130.25C713.154 125.25 713.904 119.75 713.904 113.75V3.99999H747.654V111.75C747.654 122.917 745.988 133.167 742.654 142.5C739.488 151.667 734.821 159.583 728.654 166.25C722.654 172.75 715.321 177.833 706.654 181.5C698.154 185.167 688.571 187 677.904 187ZM784.641 3.99999H849.891C858.891 3.99999 867.057 5.41666 874.391 8.24998C881.724 11.0833 887.974 15 893.141 20C898.474 25 902.557 31 905.391 38C908.224 44.8333 909.641 52.3333 909.641 60.5C909.641 66.5 908.641 72.1667 906.641 77.5C904.641 82.6667 901.891 87.4167 898.391 91.75C894.891 95.9167 890.807 99.6667 886.141 103C881.474 106.167 876.557 108.667 871.391 110.5L871.141 112.25L919.141 181V183H880.391L834.141 115.75H818.391V183H784.641V3.99999ZM849.641 84.75C857.307 84.75 863.557 82.4167 868.391 77.75C873.391 73.0833 875.891 67.1667 875.891 60C875.891 56.8333 875.307 53.75 874.141 50.75C873.141 47.75 871.557 45.0833 869.391 42.75C867.224 40.4167 864.474 38.5833 861.141 37.25C857.974 35.75 854.307 35 850.141 35H818.391V84.75H849.641ZM978.42 36V77.5H1050.17V109.5H978.42V151H1058.17V183H944.67V3.99999H1058.17V36H978.42ZM1148.95 187C1141.28 187 1133.95 185.917 1126.95 183.75C1119.95 181.583 1113.53 178.333 1107.7 174C1101.87 169.667 1096.78 164.417 1092.45 158.25C1088.12 151.917 1084.7 144.583 1082.2 136.25L1113.95 123.75C1116.28 132.75 1120.37 140.25 1126.2 146.25C1132.03 152.083 1139.7 155 1149.2 155C1152.7 155 1156.03 154.583 1159.2 153.75C1162.53 152.75 1165.45 151.417 1167.95 149.75C1170.62 147.917 1172.7 145.667 1174.2 143C1175.7 140.333 1176.45 137.25 1176.45 133.75C1176.45 130.417 1175.87 127.417 1174.7 124.75C1173.53 122.083 1171.53 119.583 1168.7 117.25C1166.03 114.917 1162.45 112.667 1157.95 110.5C1153.62 108.333 1148.2 106.083 1141.7 103.75L1130.7 99.75C1125.87 98.0833 1120.95 95.8333 1115.95 93C1111.12 90.1667 1106.7 86.75 1102.7 82.75C1098.7 78.75 1095.37 74.0833 1092.7 68.75C1090.2 63.25 1088.95 57.0833 1088.95 50.25C1088.95 43.25 1090.28 36.75 1092.95 30.75C1095.78 24.5833 1099.7 19.25 1104.7 14.75C1109.87 10.0833 1115.95 6.49999 1122.95 3.99999C1130.12 1.33332 1138.03 -1.32322e-05 1146.7 -1.32322e-05C1155.7 -1.32322e-05 1163.45 1.24999 1169.95 3.75C1176.62 6.08333 1182.2 9.16666 1186.7 13C1191.37 16.6667 1195.12 20.75 1197.95 25.25C1200.78 29.75 1202.87 34 1204.2 38L1174.45 50.5C1172.78 45.5 1169.7 41 1165.2 37C1160.87 33 1154.87 31 1147.2 31C1139.87 31 1133.78 32.75 1128.95 36.25C1124.12 39.5833 1121.7 44 1121.7 49.5C1121.7 54.8333 1124.03 59.4167 1128.7 63.25C1133.37 66.9167 1140.78 70.5 1150.95 74L1162.2 77.75C1169.37 80.25 1175.87 83.1667 1181.7 86.5C1187.7 89.6667 1192.78 93.5 1196.95 98C1201.28 102.5 1204.53 107.667 1206.7 113.5C1209.03 119.167 1210.2 125.75 1210.2 133.25C1210.2 142.583 1208.28 150.667 1204.45 157.5C1200.78 164.167 1196.03 169.667 1190.2 174C1184.37 178.333 1177.78 181.583 1170.45 183.75C1163.12 185.917 1155.95 187 1148.95 187Z"/>
</mask>
<path d="M0.119143 4V3H-0.880857V4H0.119143ZM113.619 4H114.619V3H113.619V4ZM113.619 36V37H114.619V36H113.619ZM33.8691 36V35H32.8691V36H33.8691ZM33.8691 79.5H32.8691V80.5H33.8691V79.5ZM105.619 79.5H106.619V78.5H105.619V79.5ZM105.619 111.5V112.5H106.619V111.5H105.619ZM33.8691 111.5V110.5H32.8691V111.5H33.8691ZM33.8691 183V184H34.8691V183H33.8691ZM0.119143 183H-0.880857V184H0.119143V183ZM0.119143 5H113.619V3H0.119143V5ZM112.619 4V36H114.619V4H112.619ZM113.619 35H33.8691V37H113.619V35ZM32.8691 36V79.5H34.8691V36H32.8691ZM33.8691 80.5H105.619V78.5H33.8691V80.5ZM104.619 79.5V111.5H106.619V79.5H104.619ZM105.619 110.5H33.8691V112.5H105.619V110.5ZM32.8691 111.5V183H34.8691V111.5H32.8691ZM33.8691 182H0.119143V184H33.8691V182ZM1.11914 183V4H-0.880857V183H1.11914ZM178.273 36V35H177.273V36H178.273ZM178.273 77.5H177.273V78.5H178.273V77.5ZM250.023 77.5H251.023V76.5H250.023V77.5ZM250.023 109.5V110.5H251.023V109.5H250.023ZM178.273 109.5V108.5H177.273V109.5H178.273ZM178.273 151H177.273V152H178.273V151ZM258.023 151H259.023V150H258.023V151ZM258.023 183V184H259.023V183H258.023ZM144.523 183H143.523V184H144.523V183ZM144.523 4V3H143.523V4H144.523ZM258.023 4H259.023V3H258.023V4ZM258.023 36V37H259.023V36H258.023ZM177.273 36V77.5H179.273V36H177.273ZM178.273 78.5H250.023V76.5H178.273V78.5ZM249.023 77.5V109.5H251.023V77.5H249.023ZM250.023 108.5H178.273V110.5H250.023V108.5ZM177.273 109.5V151H179.273V109.5H177.273ZM178.273 152H258.023V150H178.273V152ZM257.023 151V183H259.023V151H257.023ZM258.023 182H144.523V184H258.023V182ZM145.523 183V4H143.523V183H145.523ZM144.523 5H258.023V3H144.523V5ZM257.023 4V36H259.023V4H257.023ZM258.023 35H178.273V37H258.023V35ZM346.305 4V3H345.612L345.369 3.6483L346.305 4ZM384.805 4L385.741 3.6483L385.497 3H384.805V4ZM452.055 183V184H453.499L452.991 182.648L452.055 183ZM414.805 183L413.859 183.326L414.092 184H414.805V183ZM400.055 140.25L401 139.924L400.768 139.25H400.055V140.25ZM331.055 140.25V139.25H330.342L330.109 139.924L331.055 140.25ZM316.305 183V184H317.018L317.25 183.326L316.305 183ZM279.055 183L278.119 182.648L277.611 184H279.055V183ZM389.055 109.25V110.25H390.474L389.996 108.913L389.055 109.25ZM373.055 64.5L372.097 64.7863L372.104 64.8117L372.113 64.8367L373.055 64.5ZM366.555 42.75L367.513 42.4637L367.3 41.75H366.555V42.75ZM364.555 42.75V41.75H363.81L363.597 42.4637L364.555 42.75ZM358.055 64.5L358.996 64.8367L359.005 64.8117L359.013 64.7863L358.055 64.5ZM342.055 109.25L341.113 108.913L340.635 110.25H342.055V109.25ZM346.305 5H384.805V3H346.305V5ZM383.869 4.35169L451.119 183.352L452.991 182.648L385.741 3.6483L383.869 4.35169ZM452.055 182H414.805V184H452.055V182ZM415.75 182.674L401 139.924L399.109 140.576L413.859 183.326L415.75 182.674ZM400.055 139.25H331.055V141.25H400.055V139.25ZM330.109 139.924L315.359 182.674L317.25 183.326L332 140.576L330.109 139.924ZM316.305 182H279.055V184H316.305V182ZM279.991 183.352L347.241 4.35169L345.369 3.6483L278.119 182.648L279.991 183.352ZM389.996 108.913L373.996 64.1633L372.113 64.8367L388.113 109.587L389.996 108.913ZM374.013 64.2137L367.513 42.4637L365.597 43.0363L372.097 64.7863L374.013 64.2137ZM366.555 41.75H364.555V43.75H366.555V41.75ZM363.597 42.4637L357.097 64.2137L359.013 64.7863L365.513 43.0363L363.597 42.4637ZM357.113 64.1633L341.113 108.913L342.996 109.587L358.996 64.8367L357.113 64.1633ZM342.055 110.25H389.055V108.25H342.055V110.25ZM499.652 183H498.652V184H499.652V183ZM499.652 36H500.652V35H499.652V36ZM449.652 36H448.652V37H449.652V36ZM449.652 4V3H448.652V4H449.652ZM583.402 4H584.402V3H583.402V4ZM583.402 36V37H584.402V36H583.402ZM533.402 36V35H532.402V36H533.402ZM533.402 183V184H534.402V183H533.402ZM500.652 183V36H498.652V183H500.652ZM499.652 35H449.652V37H499.652V35ZM450.652 36V4H448.652V36H450.652ZM449.652 5H583.402V3H449.652V5ZM582.402 4V36H584.402V4H582.402ZM583.402 35H533.402V37H583.402V35ZM532.402 36V183H534.402V36H532.402ZM533.402 182H499.652V184H533.402V182ZM649.154 182L648.774 182.925L648.784 182.929L648.795 182.933L649.154 182ZM627.404 167L626.669 167.678L627.404 167ZM613.404 143.5L612.463 143.836L612.464 143.842L613.404 143.5ZM608.404 4V3H607.404V4H608.404ZM642.154 4H643.154V3H642.154V4ZM644.404 130.25L643.446 130.537L644.404 130.25ZM651.154 143.25L651.928 142.617L651.154 143.25ZM662.404 152L661.97 152.901L661.984 152.908L661.998 152.914L662.404 152ZM693.654 152L694.06 152.914L694.074 152.908L694.088 152.901L693.654 152ZM704.904 143.25L705.678 143.883L704.904 143.25ZM713.904 4V3H712.904V4H713.904ZM747.654 4H748.654V3H747.654V4ZM742.654 142.5L741.713 142.164L741.709 142.173L742.654 142.5ZM728.654 166.25L727.92 165.571L727.919 165.572L728.654 166.25ZM706.654 181.5L706.265 180.579L706.258 180.582L706.654 181.5ZM677.904 186C667.511 186 658.051 184.351 649.513 181.067L648.795 182.933C657.591 186.316 667.297 188 677.904 188V186ZM649.535 181.075C641.164 177.628 634.036 172.711 628.139 166.322L626.669 167.678C632.772 174.289 640.144 179.372 648.774 182.925L649.535 181.075ZM628.139 166.322C622.238 159.929 617.637 152.213 614.344 143.158L612.464 143.842C615.839 153.12 620.571 161.071 626.669 167.678L628.139 166.322ZM614.346 143.164C611.058 133.957 609.404 123.49 609.404 111.75H607.404C607.404 123.676 609.084 134.376 612.463 143.836L614.346 143.164ZM609.404 111.75V4H607.404V111.75H609.404ZM608.404 5H642.154V3H608.404V5ZM641.154 4V113.75H643.154V4H641.154ZM641.154 113.75C641.154 119.833 641.915 125.431 643.446 130.537L645.362 129.963C643.894 125.069 643.154 119.667 643.154 113.75H641.154ZM643.446 130.537C644.98 135.651 647.289 140.105 650.38 143.883L651.928 142.617C649.02 139.062 646.828 134.849 645.362 129.963L643.446 130.537ZM650.38 143.883C653.478 147.669 657.346 150.674 661.97 152.901L662.838 151.099C658.462 148.992 654.831 146.164 651.928 142.617L650.38 143.883ZM661.998 152.914C666.647 154.98 671.957 156 677.904 156V154C672.185 154 667.161 153.02 662.81 151.086L661.998 152.914ZM677.904 156C684.014 156 689.408 154.982 694.06 152.914L693.248 151.086C688.901 153.018 683.794 154 677.904 154V156ZM694.088 152.901C698.712 150.674 702.581 147.669 705.678 143.883L704.13 142.617C701.228 146.164 697.596 148.992 693.22 151.099L694.088 152.901ZM705.678 143.883C708.77 140.105 711.078 135.651 712.612 130.537L710.696 129.963C709.23 134.849 707.039 139.062 704.13 142.617L705.678 143.883ZM712.612 130.537C714.144 125.431 714.904 119.833 714.904 113.75H712.904C712.904 119.667 712.165 125.069 710.696 129.963L712.612 130.537ZM714.904 113.75V4H712.904V113.75H714.904ZM713.904 5H747.654V3H713.904V5ZM746.654 4V111.75H748.654V4H746.654ZM746.654 111.75C746.654 122.816 745.003 132.951 741.713 142.164L743.596 142.836C746.972 133.382 748.654 123.017 748.654 111.75H746.654ZM741.709 142.173C738.585 151.218 733.987 159.013 727.92 165.571L729.388 166.929C735.655 160.154 740.391 152.115 743.599 142.827L741.709 142.173ZM727.919 165.572C722.022 171.961 714.809 176.964 706.265 180.579L707.044 182.421C715.833 178.702 723.287 173.539 729.389 166.928L727.919 165.572ZM706.258 180.582C697.901 184.187 688.455 186 677.904 186V188C688.687 188 698.408 186.146 707.05 182.418L706.258 180.582ZM784.641 4V3H783.641V4H784.641ZM874.391 8.24998L874.751 7.31719L874.391 8.24998ZM893.141 20L892.445 20.7186L892.451 20.7241L892.457 20.7295L893.141 20ZM905.391 38L904.464 38.3752L904.467 38.383L905.391 38ZM906.641 77.5L907.573 77.861L907.577 77.8511L906.641 77.5ZM898.391 91.75L899.156 92.3932L899.163 92.3858L899.169 92.3783L898.391 91.75ZM886.141 103L886.702 103.827L886.712 103.821L886.722 103.814L886.141 103ZM871.391 110.5L871.056 109.558L870.486 109.76L870.401 110.359L871.391 110.5ZM871.141 112.25L870.151 112.109L870.095 112.499L870.321 112.822L871.141 112.25ZM919.141 181H920.141V180.685L919.961 180.428L919.141 181ZM919.141 183V184H920.141V183H919.141ZM880.391 183L879.567 183.567L879.865 184H880.391V183ZM834.141 115.75L834.965 115.183L834.667 114.75H834.141V115.75ZM818.391 115.75V114.75H817.391V115.75H818.391ZM818.391 183V184H819.391V183H818.391ZM784.641 183H783.641V184H784.641V183ZM868.391 77.75L867.708 77.0189L867.702 77.0247L867.696 77.0306L868.391 77.75ZM874.141 50.75L873.192 51.0662L873.2 51.0895L873.209 51.1124L874.141 50.75ZM869.391 42.75L868.658 43.4304V43.4304L869.391 42.75ZM861.141 37.25L860.713 38.1537L860.741 38.167L860.769 38.1785L861.141 37.25ZM818.391 35V34H817.391V35H818.391ZM818.391 84.75H817.391V85.75H818.391V84.75ZM784.641 5H849.891V3H784.641V5ZM849.891 5C858.785 5 866.827 6.39982 874.03 9.18279L874.751 7.31719C867.287 4.43349 858.996 3 849.891 3V5ZM874.03 9.18278C881.25 11.9724 887.383 15.8201 892.445 20.7186L893.836 19.2814C888.565 14.1799 882.198 10.1942 874.751 7.31719L874.03 9.18278ZM892.457 20.7295C897.681 25.6271 901.683 31.505 904.464 38.3752L906.318 37.6248C903.432 30.495 899.267 24.3729 893.825 19.2705L892.457 20.7295ZM904.467 38.383C907.245 45.0829 908.641 52.4511 908.641 60.5H910.641C910.641 52.2156 909.203 44.5838 906.314 37.617L904.467 38.383ZM908.641 60.5C908.641 66.3866 907.66 71.9337 905.704 77.1489L907.577 77.8511C909.621 72.3996 910.641 66.6134 910.641 60.5H908.641ZM905.708 77.139C903.746 82.2085 901.048 86.8684 897.613 91.1217L899.169 92.3783C902.733 87.9649 905.536 83.1248 907.573 77.861L905.708 77.139ZM897.625 91.1068C894.182 95.2057 890.161 98.8992 885.559 102.186L886.722 103.814C891.453 100.434 895.599 96.6276 899.156 92.3932L897.625 91.1068ZM885.579 102.173C880.981 105.293 876.14 107.754 871.056 109.558L871.725 111.442C876.974 109.58 881.967 107.041 886.702 103.827L885.579 102.173ZM870.401 110.359L870.151 112.109L872.131 112.391L872.381 110.641L870.401 110.359ZM870.321 112.822L918.321 181.572L919.961 180.428L871.961 111.678L870.321 112.822ZM918.141 181V183H920.141V181H918.141ZM919.141 182H880.391V184H919.141V182ZM881.215 182.433L834.965 115.183L833.317 116.317L879.567 183.567L881.215 182.433ZM834.141 114.75H818.391V116.75H834.141V114.75ZM817.391 115.75V183H819.391V115.75H817.391ZM818.391 182H784.641V184H818.391V182ZM785.641 183V4H783.641V183H785.641ZM849.641 85.75C857.527 85.75 864.039 83.3418 869.085 78.4694L867.696 77.0306C863.076 81.4916 857.088 83.75 849.641 83.75V85.75ZM869.073 78.481C874.286 73.6153 876.891 67.4289 876.891 60H874.891C874.891 66.9044 872.495 72.5513 867.708 77.0189L869.073 78.481ZM876.891 60C876.891 56.7073 876.284 53.5012 875.073 50.3875L873.209 51.1124C874.331 53.9988 874.891 56.9594 874.891 60H876.891ZM875.089 50.4338C874.044 47.2974 872.387 44.5067 870.123 42.0695L868.658 43.4304C870.728 45.6599 872.237 48.2026 873.192 51.0662L875.089 50.4338ZM870.123 42.0695C867.844 39.6147 864.965 37.7027 861.512 36.3215L860.769 38.1785C863.983 39.4639 866.604 41.2186 868.658 43.4304L870.123 42.0695ZM861.569 36.3463C858.245 34.772 854.428 34 850.141 34V36C854.187 36 857.703 36.728 860.713 38.1537L861.569 36.3463ZM850.141 34H818.391V36H850.141V34ZM817.391 35V84.75H819.391V35H817.391ZM818.391 85.75H849.641V83.75H818.391V85.75ZM978.42 36V35H977.42V36H978.42ZM978.42 77.5H977.42V78.5H978.42V77.5ZM1050.17 77.5H1051.17V76.5H1050.17V77.5ZM1050.17 109.5V110.5H1051.17V109.5H1050.17ZM978.42 109.5V108.5H977.42V109.5H978.42ZM978.42 151H977.42V152H978.42V151ZM1058.17 151H1059.17V150H1058.17V151ZM1058.17 183V184H1059.17V183H1058.17ZM944.67 183H943.67V184H944.67V183ZM944.67 4V3H943.67V4H944.67ZM1058.17 4H1059.17V3H1058.17V4ZM1058.17 36V37H1059.17V36H1058.17ZM977.42 36V77.5H979.42V36H977.42ZM978.42 78.5H1050.17V76.5H978.42V78.5ZM1049.17 77.5V109.5H1051.17V77.5H1049.17ZM1050.17 108.5H978.42V110.5H1050.17V108.5ZM977.42 109.5V151H979.42V109.5H977.42ZM978.42 152H1058.17V150H978.42V152ZM1057.17 151V183H1059.17V151H1057.17ZM1058.17 182H944.67V184H1058.17V182ZM945.67 183V4H943.67V183H945.67ZM944.67 5H1058.17V3H944.67V5ZM1057.17 4V36H1059.17V4H1057.17ZM1058.17 35H978.42V37H1058.17V35ZM1107.7 174L1107.1 174.803L1107.7 174ZM1092.45 158.25L1091.63 158.815L1091.63 158.825L1092.45 158.25ZM1082.2 136.25L1081.83 135.32L1080.98 135.656L1081.24 136.537L1082.2 136.25ZM1113.95 123.75L1114.92 123.499L1114.64 122.406L1113.58 122.82L1113.95 123.75ZM1126.2 146.25L1125.48 146.947L1125.49 146.957L1126.2 146.25ZM1159.2 153.75L1159.46 154.717L1159.47 154.713L1159.49 154.708L1159.2 153.75ZM1167.95 149.75L1168.51 150.582L1168.51 150.578L1168.52 150.574L1167.95 149.75ZM1168.7 117.25L1168.04 118.003L1168.05 118.012L1168.07 118.022L1168.7 117.25ZM1157.95 110.5L1157.5 111.394L1157.51 111.398L1157.52 111.401L1157.95 110.5ZM1141.7 103.75L1141.36 104.69L1141.36 104.691L1141.7 103.75ZM1130.7 99.75L1131.04 98.8102L1131.04 98.8073L1131.03 98.8046L1130.7 99.75ZM1115.95 93L1115.45 93.8627L1115.45 93.8664L1115.46 93.87L1115.95 93ZM1102.7 82.75L1103.41 82.0429L1102.7 82.75ZM1092.7 68.75L1091.79 69.1638L1091.8 69.1806L1091.81 69.1972L1092.7 68.75ZM1092.95 30.75L1092.04 30.3325L1092.04 30.3439L1092.95 30.75ZM1104.7 14.75L1105.37 15.4933L1105.37 15.4921L1104.7 14.75ZM1122.95 4L1123.29 4.94182L1123.3 4.93722L1122.95 4ZM1169.95 3.75L1169.59 4.68334L1169.61 4.68882L1169.62 4.69386L1169.95 3.75ZM1186.7 13L1186.05 13.7612L1186.07 13.7741L1186.08 13.7863L1186.7 13ZM1204.2 38L1204.59 38.9219L1205.44 38.5629L1205.15 37.6838L1204.2 38ZM1174.45 50.5L1173.5 50.8162L1173.84 51.8399L1174.84 51.4219L1174.45 50.5ZM1165.2 37L1164.52 37.7348L1164.53 37.7412L1164.54 37.7474L1165.2 37ZM1128.95 36.25L1129.52 37.0732L1129.53 37.0667L1129.54 37.0599L1128.95 36.25ZM1128.7 63.25L1128.07 64.0227L1128.07 64.0296L1128.08 64.0363L1128.7 63.25ZM1150.95 74L1150.63 74.9456L1150.64 74.9487L1150.95 74ZM1162.2 77.75L1162.53 76.8057L1162.52 76.8013L1162.2 77.75ZM1181.7 86.5L1181.21 87.3682L1181.22 87.3766L1181.23 87.3844L1181.7 86.5ZM1196.95 98L1196.22 98.6794L1196.22 98.6866L1196.23 98.6936L1196.95 98ZM1206.7 113.5L1205.76 113.848L1205.77 113.865L1205.78 113.881L1206.7 113.5ZM1204.45 157.5L1203.58 157.011L1203.57 157.018L1204.45 157.5ZM1190.2 174L1189.6 173.197L1190.2 174ZM1170.45 183.75L1170.17 182.791L1170.45 183.75ZM1148.95 186C1141.38 186 1134.15 184.93 1127.25 182.795L1126.66 184.705C1133.76 186.903 1141.19 188 1148.95 188V186ZM1127.25 182.795C1120.35 180.661 1114.04 177.463 1108.3 173.197L1107.1 174.803C1113.03 179.204 1119.55 182.505 1126.66 184.705L1127.25 182.795ZM1108.3 173.197C1102.55 168.93 1097.54 163.758 1093.27 157.675L1091.63 158.825C1096.03 165.076 1101.18 170.403 1107.1 174.803L1108.3 173.197ZM1093.28 157.685C1089.01 151.448 1085.63 144.21 1083.16 135.963L1081.24 136.537C1083.77 144.956 1087.23 152.386 1091.63 158.815L1093.28 157.685ZM1082.57 137.18L1114.32 124.68L1113.58 122.82L1081.83 135.32L1082.57 137.18ZM1112.98 124.001C1115.36 133.15 1119.52 140.809 1125.48 146.947L1126.92 145.553C1121.22 139.691 1117.21 132.35 1114.92 123.499L1112.98 124.001ZM1125.49 146.957C1131.54 153.007 1139.48 156 1149.2 156V154C1139.92 154 1132.53 151.16 1126.91 145.543L1125.49 146.957ZM1149.2 156C1152.78 156 1156.2 155.574 1159.46 154.717L1158.95 152.783C1155.87 153.593 1152.62 154 1149.2 154V156ZM1159.49 154.708C1162.9 153.684 1165.91 152.312 1168.51 150.582L1167.4 148.918C1164.99 150.522 1162.17 151.816 1158.91 152.792L1159.49 154.708ZM1168.52 150.574C1171.3 148.659 1173.49 146.298 1175.07 143.49L1173.33 142.51C1171.91 145.036 1169.93 147.174 1167.38 148.926L1168.52 150.574ZM1175.07 143.49C1176.67 140.653 1177.45 137.397 1177.45 133.75H1175.45C1175.45 137.103 1174.73 140.013 1173.33 142.51L1175.07 143.49ZM1177.45 133.75C1177.45 130.299 1176.85 127.159 1175.62 124.349L1173.79 125.151C1174.89 127.674 1175.45 130.535 1175.45 133.75H1177.45ZM1175.62 124.349C1174.37 121.506 1172.26 118.886 1169.34 116.478L1168.07 118.022C1170.81 120.281 1172.7 122.661 1173.79 125.151L1175.62 124.349ZM1169.36 116.497C1166.6 114.086 1162.94 111.79 1158.39 109.599L1157.52 111.401C1161.97 113.543 1165.47 115.747 1168.04 118.003L1169.36 116.497ZM1158.4 109.606C1154.02 107.415 1148.56 105.15 1142.04 102.809L1141.36 104.691C1147.84 107.016 1153.22 109.251 1157.5 111.394L1158.4 109.606ZM1142.04 102.81L1131.04 98.8102L1130.36 100.69L1141.36 104.69L1142.04 102.81ZM1131.03 98.8046C1126.26 97.1602 1121.4 94.9368 1116.44 92.13L1115.46 93.87C1120.51 96.7299 1125.48 99.0065 1130.38 100.695L1131.03 98.8046ZM1116.46 92.1373C1111.7 89.3475 1107.35 85.9833 1103.41 82.0429L1101.99 83.4571C1106.05 87.5167 1110.54 90.9859 1115.45 93.8627L1116.46 92.1373ZM1103.41 82.0429C1099.49 78.1229 1096.22 73.5452 1093.6 68.3028L1091.81 69.1972C1094.52 74.6214 1097.91 79.3771 1101.99 83.4571L1103.41 82.0429ZM1093.61 68.3362C1091.18 62.9822 1089.95 56.9593 1089.95 50.25H1087.95C1087.95 57.2074 1089.22 63.5178 1091.79 69.1638L1093.61 68.3362ZM1089.95 50.25C1089.95 43.3805 1091.26 37.02 1093.86 31.1561L1092.04 30.3439C1089.31 36.48 1087.95 43.1195 1087.95 50.25H1089.95ZM1093.86 31.1675C1096.64 25.1235 1100.47 19.9013 1105.37 15.4933L1104.03 14.0067C1098.93 18.5987 1094.93 24.0432 1092.04 30.3325L1093.86 31.1675ZM1105.37 15.4921C1110.43 10.919 1116.4 7.40071 1123.29 4.94174L1122.61 3.05825C1115.5 5.59928 1109.3 9.24764 1104.03 14.0079L1105.37 15.4921ZM1123.3 4.93722C1130.34 2.31721 1138.14 0.999987 1146.7 0.999987V-1.00001C1137.93 -1.00001 1129.89 0.349432 1122.6 3.06277L1123.3 4.93722ZM1146.7 0.999987C1155.61 0.999987 1163.23 2.23819 1169.59 4.68334L1170.31 2.81665C1163.67 0.261797 1155.79 -1.00001 1146.7 -1.00001V0.999987ZM1169.62 4.69386C1176.19 6.9942 1181.66 10.0218 1186.05 13.7612L1187.35 12.2388C1182.74 8.31154 1177.04 5.17246 1170.28 2.80614L1169.62 4.69386ZM1186.08 13.7863C1190.67 17.3903 1194.34 21.3903 1197.1 25.7828L1198.8 24.7172C1195.9 20.1096 1192.07 15.943 1187.32 12.2137L1186.08 13.7863ZM1197.1 25.7828C1199.91 30.2317 1201.95 34.409 1203.25 38.3162L1205.15 37.6838C1203.79 33.591 1201.66 29.2683 1198.8 24.7172L1197.1 25.7828ZM1203.81 37.0781L1174.06 49.5781L1174.84 51.4219L1204.59 38.9219L1203.81 37.0781ZM1175.4 50.1838C1173.67 44.9951 1170.48 40.3521 1165.87 36.2526L1164.54 37.7474C1168.92 41.6479 1171.9 46.0049 1173.5 50.8162L1175.4 50.1838ZM1165.88 36.2652C1161.31 32.0484 1155.04 30 1147.2 30V32C1154.69 32 1160.42 33.9515 1164.52 37.7348L1165.88 36.2652ZM1147.2 30C1139.71 30 1133.4 31.7906 1128.36 35.4401L1129.54 37.0599C1134.16 33.7094 1140.03 32 1147.2 32V30ZM1128.38 35.4268C1123.3 38.9319 1120.7 43.6458 1120.7 49.5H1122.7C1122.7 44.3542 1124.93 40.2348 1129.52 37.0732L1128.38 35.4268ZM1120.7 49.5C1120.7 55.1745 1123.2 60.0277 1128.07 64.0227L1129.34 62.4773C1124.87 58.8056 1122.7 54.4922 1122.7 49.5H1120.7ZM1128.08 64.0363C1132.88 67.8068 1140.42 71.4337 1150.63 74.9455L1151.28 73.0545C1141.14 69.5663 1133.85 66.0265 1129.32 62.4637L1128.08 64.0363ZM1150.64 74.9487L1161.88 78.6987L1162.52 76.8013L1151.27 73.0513L1150.64 74.9487ZM1161.87 78.6942C1168.99 81.1766 1175.43 84.0689 1181.21 87.3682L1182.2 85.6318C1176.3 82.2644 1169.75 79.3234 1162.53 76.8058L1161.87 78.6942ZM1181.23 87.3844C1187.15 90.5039 1192.14 94.2707 1196.22 98.6794L1197.68 97.3206C1193.43 92.7293 1188.26 88.8295 1182.17 85.6156L1181.23 87.3844ZM1196.23 98.6936C1200.47 103.095 1203.65 108.144 1205.76 113.848L1207.64 113.152C1205.42 107.189 1202.1 101.905 1197.67 97.3064L1196.23 98.6936ZM1205.78 113.881C1208.05 119.403 1209.2 125.852 1209.2 133.25H1211.2C1211.2 125.648 1210.02 118.93 1207.63 113.119L1205.78 113.881ZM1209.2 133.25C1209.2 142.445 1207.31 150.353 1203.58 157.011L1205.32 157.989C1209.26 150.98 1211.2 142.722 1211.2 133.25H1209.2ZM1203.57 157.018C1199.97 163.565 1195.32 168.954 1189.6 173.197L1190.8 174.803C1196.75 170.38 1201.59 164.768 1205.33 157.982L1203.57 157.018ZM1189.6 173.197C1183.87 177.457 1177.39 180.656 1170.17 182.791L1170.73 184.709C1178.17 182.511 1184.86 179.21 1190.8 174.803L1189.6 173.197ZM1170.17 182.791C1162.92 184.933 1155.85 186 1148.95 186V188C1156.06 188 1163.32 186.9 1170.73 184.709L1170.17 182.791Z" fill="#1B2551" mask="url(#path-1-outside-1_603_182)"/>
</svg>
