<svg width="41" height="40" viewBox="0 0 41 40" fill="none" xmlns="http://www.w3.org/2000/svg">
<path d="M7.07031 25.0371L14.9922 17.1152M27.1797 21.9902L33.8828 15.2871L27.1797 21.9902ZM18.6484 17.1152L23.5234 21.9902L18.6484 17.1152Z" stroke="#1B2551" stroke-width="2.47378" stroke-linecap="round" stroke-linejoin="round"/>
<path d="M35.7109 15.2871C36.7206 15.2871 37.5391 14.4686 37.5391 13.459C37.5391 12.4493 36.7206 11.6309 35.7109 11.6309C34.7013 11.6309 33.8828 12.4493 33.8828 13.459C33.8828 14.4686 34.7013 15.2871 35.7109 15.2871Z" stroke="#1B2551" stroke-width="2.47378" stroke-linecap="round" stroke-linejoin="round"/>
<path d="M25.3516 25.6465C26.3612 25.6465 27.1797 24.828 27.1797 23.8184C27.1797 22.8087 26.3612 21.9902 25.3516 21.9902C24.3419 21.9902 23.5234 22.8087 23.5234 23.8184C23.5234 24.828 24.3419 25.6465 25.3516 25.6465Z" stroke="#1B2551" stroke-width="2.47378" stroke-linecap="round" stroke-linejoin="round"/>
<path d="M16.8203 17.1152C17.83 17.1152 18.6484 16.2968 18.6484 15.2871C18.6484 14.2775 17.83 13.459 16.8203 13.459C15.8107 13.459 14.9922 14.2775 14.9922 15.2871C14.9922 16.2968 15.8107 17.1152 16.8203 17.1152Z" stroke="#1B2551" stroke-width="2.47378" stroke-linecap="round" stroke-linejoin="round"/>
<path d="M5.24219 28.6934C6.25183 28.6934 7.07031 27.8749 7.07031 26.8652C7.07031 25.8556 6.25183 25.0371 5.24219 25.0371C4.23254 25.0371 3.41406 25.8556 3.41406 26.8652C3.41406 27.8749 4.23254 28.6934 5.24219 28.6934Z" stroke="#1B2551" stroke-width="2.47378" stroke-linecap="round" stroke-linejoin="round"/>
</svg>
