<svg width="330" height="199" viewBox="0 0 330 199" fill="none" xmlns="http://www.w3.org/2000/svg">
<path d="M168.82 75.32C168.207 75.32 167.62 75.2333 167.06 75.06C166.5 74.8867 165.987 74.6267 165.52 74.28C165.053 73.9333 164.647 73.5133 164.3 73.02C163.953 72.5133 163.68 71.9267 163.48 71.26L166.02 70.26C166.207 70.98 166.533 71.58 167 72.06C167.467 72.5267 168.08 72.76 168.84 72.76C169.12 72.76 169.387 72.7267 169.64 72.66C169.907 72.58 170.14 72.4733 170.34 72.34C170.553 72.1933 170.72 72.0133 170.84 71.8C170.96 71.5867 171.02 71.34 171.02 71.06C171.02 70.7933 170.973 70.5533 170.88 70.34C170.787 70.1267 170.627 69.9267 170.4 69.74C170.187 69.5533 169.9 69.3733 169.54 69.2C169.193 69.0267 168.76 68.8467 168.24 68.66L167.36 68.34C166.973 68.2067 166.58 68.0267 166.18 67.8C165.793 67.5733 165.44 67.3 165.12 66.98C164.8 66.66 164.533 66.2867 164.32 65.86C164.12 65.42 164.02 64.9267 164.02 64.38C164.02 63.82 164.127 63.3 164.34 62.82C164.567 62.3267 164.88 61.9 165.28 61.54C165.693 61.1667 166.18 60.88 166.74 60.68C167.313 60.4667 167.947 60.36 168.64 60.36C169.36 60.36 169.98 60.46 170.5 60.66C171.033 60.8467 171.48 61.0933 171.84 61.4C172.213 61.6933 172.513 62.02 172.74 62.38C172.967 62.74 173.133 63.08 173.24 63.4L170.86 64.4C170.727 64 170.48 63.64 170.12 63.32C169.773 63 169.293 62.84 168.68 62.84C168.093 62.84 167.607 62.98 167.22 63.26C166.833 63.5267 166.64 63.88 166.64 64.32C166.64 64.7467 166.827 65.1133 167.2 65.42C167.573 65.7133 168.167 66 168.98 66.28L169.88 66.58C170.453 66.78 170.973 67.0133 171.44 67.28C171.92 67.5333 172.327 67.84 172.66 68.2C173.007 68.56 173.267 68.9733 173.44 69.44C173.627 69.8933 173.72 70.42 173.72 71.02C173.72 71.7667 173.567 72.4133 173.26 72.96C172.967 73.4933 172.587 73.9333 172.12 74.28C171.653 74.6267 171.127 74.8867 170.54 75.06C169.953 75.2333 169.38 75.32 168.82 75.32ZM188.464 72.7C187.757 73.5533 186.924 74.2067 185.964 74.66C185.004 75.1 183.931 75.32 182.744 75.32C181.677 75.32 180.684 75.1267 179.764 74.74C178.857 74.3533 178.071 73.8267 177.404 73.16C176.737 72.4933 176.211 71.7067 175.824 70.8C175.437 69.88 175.244 68.8933 175.244 67.84C175.244 66.7867 175.437 65.8067 175.824 64.9C176.211 63.98 176.737 63.1867 177.404 62.52C178.071 61.8533 178.857 61.3267 179.764 60.94C180.684 60.5533 181.677 60.36 182.744 60.36C183.891 60.36 184.897 60.56 185.764 60.96C186.644 61.36 187.424 61.94 188.104 62.7L186.204 64.54C185.777 64.0467 185.284 63.6533 184.724 63.36C184.177 63.0667 183.524 62.92 182.764 62.92C182.097 62.92 181.471 63.04 180.884 63.28C180.297 63.5067 179.784 63.8333 179.344 64.26C178.917 64.6867 178.577 65.2067 178.324 65.82C178.071 66.42 177.944 67.0933 177.944 67.84C177.944 68.5867 178.071 69.2667 178.324 69.88C178.577 70.48 178.917 70.9933 179.344 71.42C179.784 71.8467 180.297 72.18 180.884 72.42C181.471 72.6467 182.097 72.76 182.764 72.76C183.564 72.76 184.271 72.6 184.884 72.28C185.511 71.9467 186.064 71.48 186.544 70.88L188.464 72.7ZM194.811 60.68H197.891L203.271 75H200.291L199.111 71.58H193.591L192.411 75H189.431L194.811 60.68ZM198.231 69.1L196.951 65.52L196.431 63.78H196.271L195.751 65.52L194.471 69.1H198.231ZM204.948 60.68H208.088L213.848 70.28H214.008L213.848 67.52V60.68H216.528V75H213.688L207.608 64.86H207.448L207.608 67.62V75H204.948V60.68ZM226.035 75V63.24H222.035V60.68H232.735V63.24H228.735V75H226.035ZM240.829 75.32C239.763 75.32 238.769 75.1267 237.849 74.74C236.943 74.3533 236.156 73.8267 235.489 73.16C234.823 72.48 234.296 71.6867 233.909 70.78C233.536 69.86 233.349 68.88 233.349 67.84C233.349 66.8 233.536 65.8267 233.909 64.92C234.296 64 234.823 63.2067 235.489 62.54C236.156 61.86 236.943 61.3267 237.849 60.94C238.769 60.5533 239.763 60.36 240.829 60.36C241.896 60.36 242.883 60.5533 243.789 60.94C244.709 61.3267 245.503 61.86 246.169 62.54C246.836 63.2067 247.356 64 247.729 64.92C248.116 65.8267 248.309 66.8 248.309 67.84C248.309 68.88 248.116 69.86 247.729 70.78C247.356 71.6867 246.836 72.48 246.169 73.16C245.503 73.8267 244.709 74.3533 243.789 74.74C242.883 75.1267 241.896 75.32 240.829 75.32ZM240.829 72.76C241.496 72.76 242.116 72.64 242.689 72.4C243.276 72.16 243.783 71.8267 244.209 71.4C244.649 70.9733 244.989 70.46 245.229 69.86C245.483 69.2467 245.609 68.5733 245.609 67.84C245.609 67.1067 245.483 66.44 245.229 65.84C244.989 65.2267 244.649 64.7067 244.209 64.28C243.783 63.8533 243.276 63.52 242.689 63.28C242.116 63.04 241.496 62.92 240.829 62.92C240.163 62.92 239.536 63.04 238.949 63.28C238.376 63.52 237.869 63.8533 237.429 64.28C237.003 64.7067 236.663 65.2267 236.409 65.84C236.169 66.44 236.049 67.1067 236.049 67.84C236.049 68.5733 236.169 69.2467 236.409 69.86C236.663 70.46 237.003 70.9733 237.429 71.4C237.869 71.8267 238.376 72.16 238.949 72.4C239.536 72.64 240.163 72.76 240.829 72.76ZM164.44 84.68H169.28C170.413 84.68 171.433 84.8533 172.34 85.2C173.247 85.5467 174.02 86.04 174.66 86.68C175.3 87.3067 175.787 88.06 176.12 88.94C176.467 89.82 176.64 90.7867 176.64 91.84C176.64 92.9067 176.467 93.88 176.12 94.76C175.787 95.64 175.3 96.3933 174.66 97.02C174.02 97.6467 173.247 98.1333 172.34 98.48C171.433 98.8267 170.413 99 169.28 99H164.44V84.68ZM169.16 96.44C169.947 96.44 170.64 96.3333 171.24 96.12C171.84 95.8933 172.34 95.58 172.74 95.18C173.14 94.78 173.44 94.3 173.64 93.74C173.84 93.1667 173.94 92.5333 173.94 91.84C173.94 91.1467 173.84 90.52 173.64 89.96C173.44 89.3867 173.14 88.9 172.74 88.5C172.34 88.1 171.84 87.7933 171.24 87.58C170.64 87.3533 169.947 87.24 169.16 87.24H167.14V96.44H169.16ZM185.595 99.32C184.528 99.32 183.535 99.1267 182.615 98.74C181.708 98.3533 180.922 97.8267 180.255 97.16C179.588 96.48 179.062 95.6867 178.675 94.78C178.302 93.86 178.115 92.88 178.115 91.84C178.115 90.8 178.302 89.8267 178.675 88.92C179.062 88 179.588 87.2067 180.255 86.54C180.922 85.86 181.708 85.3267 182.615 84.94C183.535 84.5533 184.528 84.36 185.595 84.36C186.662 84.36 187.648 84.5533 188.555 84.94C189.475 85.3267 190.268 85.86 190.935 86.54C191.602 87.2067 192.122 88 192.495 88.92C192.882 89.8267 193.075 90.8 193.075 91.84C193.075 92.88 192.882 93.86 192.495 94.78C192.122 95.6867 191.602 96.48 190.935 97.16C190.268 97.8267 189.475 98.3533 188.555 98.74C187.648 99.1267 186.662 99.32 185.595 99.32ZM185.595 96.76C186.262 96.76 186.882 96.64 187.455 96.4C188.042 96.16 188.548 95.8267 188.975 95.4C189.415 94.9733 189.755 94.46 189.995 93.86C190.248 93.2467 190.375 92.5733 190.375 91.84C190.375 91.1067 190.248 90.44 189.995 89.84C189.755 89.2267 189.415 88.7067 188.975 88.28C188.548 87.8533 188.042 87.52 187.455 87.28C186.882 87.04 186.262 86.92 185.595 86.92C184.928 86.92 184.302 87.04 183.715 87.28C183.142 87.52 182.635 87.8533 182.195 88.28C181.768 88.7067 181.428 89.2267 181.175 89.84C180.935 90.44 180.815 91.1067 180.815 91.84C180.815 92.5733 180.935 93.2467 181.175 93.86C181.428 94.46 181.768 94.9733 182.195 95.4C182.635 95.8267 183.142 96.16 183.715 96.4C184.302 96.64 184.928 96.76 185.595 96.76ZM193.945 84.68H196.805L199.025 93.04L199.345 94.58H199.505L199.925 93.04L201.985 86.6H204.505L206.585 93.04L206.985 94.56H207.145L207.445 93.04L209.525 84.68H212.385L208.585 99H205.985L203.745 92.1L203.325 90.52H203.165L202.745 92.1L200.505 99H197.905L193.945 84.68ZM214.147 84.68H217.287L223.047 94.28H223.207L223.047 91.52V84.68H225.727V99H222.887L216.807 88.86H216.647L216.807 91.62V99H214.147V84.68ZM228.6 84.68H231.3V96.44H237.36V99H228.6V84.68ZM245.771 99.32C244.704 99.32 243.711 99.1267 242.791 98.74C241.884 98.3533 241.097 97.8267 240.431 97.16C239.764 96.48 239.237 95.6867 238.851 94.78C238.477 93.86 238.291 92.88 238.291 91.84C238.291 90.8 238.477 89.8267 238.851 88.92C239.237 88 239.764 87.2067 240.431 86.54C241.097 85.86 241.884 85.3267 242.791 84.94C243.711 84.5533 244.704 84.36 245.771 84.36C246.837 84.36 247.824 84.5533 248.731 84.94C249.651 85.3267 250.444 85.86 251.111 86.54C251.777 87.2067 252.297 88 252.671 88.92C253.057 89.8267 253.251 90.8 253.251 91.84C253.251 92.88 253.057 93.86 252.671 94.78C252.297 95.6867 251.777 96.48 251.111 97.16C250.444 97.8267 249.651 98.3533 248.731 98.74C247.824 99.1267 246.837 99.32 245.771 99.32ZM245.771 96.76C246.437 96.76 247.057 96.64 247.631 96.4C248.217 96.16 248.724 95.8267 249.151 95.4C249.591 94.9733 249.931 94.46 250.171 93.86C250.424 93.2467 250.551 92.5733 250.551 91.84C250.551 91.1067 250.424 90.44 250.171 89.84C249.931 89.2267 249.591 88.7067 249.151 88.28C248.724 87.8533 248.217 87.52 247.631 87.28C247.057 87.04 246.437 86.92 245.771 86.92C245.104 86.92 244.477 87.04 243.891 87.28C243.317 87.52 242.811 87.8533 242.371 88.28C241.944 88.7067 241.604 89.2267 241.351 89.84C241.111 90.44 240.991 91.1067 240.991 91.84C240.991 92.5733 241.111 93.2467 241.351 93.86C241.604 94.46 241.944 94.9733 242.371 95.4C242.811 95.8267 243.317 96.16 243.891 96.4C244.477 96.64 245.104 96.76 245.771 96.76ZM259.225 84.68H262.305L267.685 99H264.705L263.525 95.58H258.005L256.825 99H253.845L259.225 84.68ZM262.645 93.1L261.365 89.52L260.845 87.78H260.685L260.165 89.52L258.885 93.1H262.645ZM269.362 84.68H274.202C275.335 84.68 276.355 84.8533 277.262 85.2C278.169 85.5467 278.942 86.04 279.582 86.68C280.222 87.3067 280.709 88.06 281.042 88.94C281.389 89.82 281.562 90.7867 281.562 91.84C281.562 92.9067 281.389 93.88 281.042 94.76C280.709 95.64 280.222 96.3933 279.582 97.02C278.942 97.6467 278.169 98.1333 277.262 98.48C276.355 98.8267 275.335 99 274.202 99H269.362V84.68ZM274.082 96.44C274.869 96.44 275.562 96.3333 276.162 96.12C276.762 95.8933 277.262 95.58 277.662 95.18C278.062 94.78 278.362 94.3 278.562 93.74C278.762 93.1667 278.862 92.5333 278.862 91.84C278.862 91.1467 278.762 90.52 278.562 89.96C278.362 89.3867 278.062 88.9 277.662 88.5C277.262 88.1 276.762 87.7933 276.162 87.58C275.562 87.3533 274.869 87.24 274.082 87.24H272.062V96.44H274.082ZM167.48 123V111.24H163.48V108.68H174.18V111.24H170.18V123H167.48ZM176.1 108.68H178.8V114.4H184.82V108.68H187.52V123H184.82V116.96H178.8V123H176.1V108.68ZM193.097 111.24V114.56H198.837V117.12H193.097V120.44H199.477V123H190.397V108.68H199.477V111.24H193.097ZM204.353 108.68H207.273L210.233 117.3L210.753 119.14H210.913L211.473 117.3L214.553 108.68H217.473L212.253 123H209.413L204.353 108.68ZM221.921 108.68H225.001L230.381 123H227.401L226.221 119.58H220.701L219.521 123H216.541L221.921 108.68ZM225.341 117.1L224.061 113.52L223.541 111.78H223.381L222.861 113.52L221.581 117.1H225.341ZM232.057 108.68H234.757V114.4H240.777V108.68H243.477V123H240.777V116.96H234.757V123H232.057V108.68ZM250.534 108.68H253.614L258.994 123H256.014L254.834 119.58H249.314L248.134 123H245.154L250.534 108.68ZM253.954 117.1L252.674 113.52L252.154 111.78H251.994L251.474 113.52L250.194 117.1H253.954ZM260.67 108.68H263.81L269.57 118.28H269.73L269.57 115.52V108.68H272.25V123H269.41L263.33 112.86H263.17L263.33 115.62V123H260.67V108.68ZM280.524 116.42H283.944V118.74H280.524V122.14H278.204V118.74H274.804V116.42H278.204V113.02H280.524V116.42ZM294.479 108.68H297.559L302.939 123H299.959L298.779 119.58H293.259L292.079 123H289.099L294.479 108.68ZM297.899 117.1L296.619 113.52L296.099 111.78H295.939L295.419 113.52L294.139 117.1H297.899ZM304.616 123V108.68H309.656C310.336 108.68 310.969 108.793 311.556 109.02C312.156 109.233 312.676 109.54 313.116 109.94C313.556 110.34 313.902 110.82 314.156 111.38C314.409 111.927 314.536 112.533 314.536 113.2C314.536 113.88 314.409 114.5 314.156 115.06C313.902 115.607 313.556 116.08 313.116 116.48C312.676 116.88 312.156 117.193 311.556 117.42C310.969 117.633 310.336 117.74 309.656 117.74H307.316V123H304.616ZM309.696 115.18C310.402 115.18 310.936 114.98 311.296 114.58C311.656 114.18 311.836 113.72 311.836 113.2C311.836 112.947 311.789 112.7 311.696 112.46C311.616 112.22 311.482 112.013 311.296 111.84C311.122 111.653 310.902 111.507 310.636 111.4C310.369 111.293 310.056 111.24 309.696 111.24H307.316V115.18H309.696ZM316.452 123V108.68H321.492C322.172 108.68 322.805 108.793 323.392 109.02C323.992 109.233 324.512 109.54 324.952 109.94C325.392 110.34 325.738 110.82 325.992 111.38C326.245 111.927 326.372 112.533 326.372 113.2C326.372 113.88 326.245 114.5 325.992 115.06C325.738 115.607 325.392 116.08 324.952 116.48C324.512 116.88 323.992 117.193 323.392 117.42C322.805 117.633 322.172 117.74 321.492 117.74H319.152V123H316.452ZM321.532 115.18C322.238 115.18 322.772 114.98 323.132 114.58C323.492 114.18 323.672 113.72 323.672 113.2C323.672 112.947 323.625 112.7 323.532 112.46C323.452 112.22 323.318 112.013 323.132 111.84C322.958 111.653 322.738 111.507 322.472 111.4C322.205 111.293 321.892 111.24 321.532 111.24H319.152V115.18H321.532Z" fill="white"/>
<g filter="url(#filter0_d_604_371)">
<rect x="43" y="40" width="99" height="99" fill="#E9E9EA"/>
</g>
<g clip-path="url(#clip0_604_371)">
<path d="M99.2554 57.5545C99.2935 57.6851 99.3037 57.8222 99.2854 57.957C99.2854 59.0987 99.2854 60.2404 99.2854 61.3816C99.2854 61.7415 99.2891 61.7452 99.6427 61.7457C100.717 61.7457 101.791 61.7457 102.865 61.7457C103.554 61.7457 103.483 61.6646 103.483 62.3442C103.483 65.3217 103.483 68.2988 103.483 71.2756C103.483 73.5316 103.483 75.7879 103.483 78.0447C103.483 78.5715 103.52 78.5315 103.002 78.5315H95.6603C95.5517 78.5315 95.4426 78.5315 95.3341 78.5315C95.1233 78.5383 95.1028 78.5531 95.1017 78.7707C95.0993 79.8992 95.0993 81.0276 95.1017 82.1558C95.1017 82.278 95.1018 82.4002 95.0986 82.5246C95.0928 82.66 95.058 82.6989 94.9347 82.7068C94.8262 82.7137 94.7171 82.7127 94.6086 82.7127H91.3865C91.2779 82.7127 91.1689 82.7163 91.0603 82.7216C91.0433 82.7217 91.0264 82.7251 91.0106 82.7317C90.9949 82.7383 90.9806 82.748 90.9686 82.7601C90.9566 82.7723 90.9471 82.7867 90.9407 82.8025C90.9343 82.8183 90.9311 82.8352 90.9312 82.8523C90.9223 82.9877 90.9223 83.1236 90.9223 83.2595C90.9223 87.0663 90.9223 90.8725 90.9223 94.6782C90.9223 94.8141 90.9223 94.9506 90.9191 95.086C90.9159 95.2214 90.8664 95.2714 90.7157 95.2799C90.6072 95.2857 90.4981 95.2835 90.3896 95.2835C89.2883 95.2835 88.187 95.2835 87.0858 95.2835C86.7217 95.2835 86.7169 95.2883 86.7169 95.6392C86.7148 96.7944 86.7148 97.9498 86.7169 99.1054C86.7169 99.1734 86.717 99.2413 86.7228 99.3093C86.7225 99.3263 86.7256 99.3432 86.7319 99.359C86.7382 99.3748 86.7475 99.3892 86.7595 99.4014C86.7714 99.4135 86.7856 99.4232 86.8013 99.4298C86.8169 99.4365 86.8338 99.4399 86.8508 99.44C86.9562 99.4479 87.0679 99.4515 87.1764 99.4515C91.051 99.4515 94.9256 99.4515 98.8001 99.4515C98.9582 99.4774 99.1203 99.4545 99.2649 99.3857C99.2649 98.0159 99.2649 96.6302 99.2691 95.2451L99.2612 95.2551C99.3697 95.2551 99.4783 95.2593 99.5869 95.2593H107.24C107.308 95.2593 107.376 95.2593 107.444 95.2593C107.605 95.2509 107.638 95.2219 107.646 95.0723C107.651 94.9911 107.649 94.9095 107.649 94.8284V91.5307C107.649 91.0655 107.665 91.0955 107.199 91.0955H100.929C100.373 91.0955 99.8166 91.0913 99.2607 91.0892L99.2686 91.0982C99.2686 89.82 99.2686 88.5422 99.2686 87.2647C99.2686 87.1831 99.2686 87.1014 99.2749 87.0203C99.276 86.9858 99.2907 86.9533 99.3158 86.9296C99.3409 86.906 99.3743 86.8934 99.4088 86.8944C99.5168 86.8865 99.6258 86.8838 99.7344 86.8838H123.961C124.442 86.8838 124.427 86.8659 124.427 87.3543C124.427 88.4431 124.427 89.5306 124.427 90.6166C124.427 90.6846 124.427 90.7526 124.427 90.8205C124.418 91.0771 124.406 91.0924 124.142 91.095C123.762 91.0987 123.381 91.095 123 91.095C120.839 91.095 118.677 91.095 116.516 91.095C116.02 91.095 116.057 91.0513 116.057 91.5592C116.057 94.0333 116.057 96.5075 116.057 98.9816C116.057 99.4921 116.004 99.4558 116.55 99.4558C118.997 99.4558 121.444 99.4558 123.891 99.4558C124.475 99.4558 124.427 99.4099 124.428 99.9747C124.43 101.035 124.43 102.095 124.428 103.155C124.428 103.278 124.428 103.4 124.418 103.524C124.418 103.541 124.415 103.558 124.409 103.574C124.403 103.59 124.393 103.604 124.381 103.617C124.369 103.629 124.355 103.638 124.339 103.645C124.324 103.652 124.307 103.655 124.29 103.655C124.181 103.66 124.073 103.663 123.964 103.663H120.701C120.592 103.663 120.484 103.663 120.375 103.671C120.358 103.67 120.341 103.673 120.326 103.68C120.31 103.686 120.295 103.695 120.283 103.707C120.271 103.719 120.261 103.733 120.255 103.749C120.248 103.764 120.245 103.781 120.245 103.798C120.238 103.866 120.237 103.934 120.237 104.002C120.237 105.17 120.237 106.34 120.237 107.509C120.237 107.576 120.24 107.644 120.246 107.712C120.246 107.726 120.249 107.74 120.254 107.753C120.259 107.765 120.267 107.777 120.277 107.787C120.287 107.797 120.298 107.804 120.311 107.81C120.324 107.815 120.338 107.818 120.351 107.818C120.474 107.825 120.596 107.829 120.718 107.829C121.833 107.829 122.948 107.829 124.063 107.829C124.422 107.829 124.428 107.833 124.428 108.189C124.428 109.304 124.428 110.419 124.428 111.534C124.428 112.064 124.401 112.03 124.906 112.03H128.128C128.61 112.03 128.586 112.049 128.585 111.556C128.585 110.467 128.585 109.379 128.585 108.293C128.585 107.772 128.585 107.831 129.052 107.83C130.141 107.828 131.229 107.828 132.315 107.83C132.41 107.83 132.505 107.83 132.6 107.827C132.75 107.819 132.784 107.788 132.785 107.624C132.789 107.244 132.785 106.863 132.785 106.483C132.785 105.666 132.785 104.85 132.785 104.035C132.785 103.954 132.785 103.872 132.792 103.791C132.791 103.774 132.794 103.757 132.8 103.741C132.806 103.725 132.815 103.711 132.827 103.699C132.838 103.686 132.852 103.677 132.868 103.67C132.883 103.663 132.9 103.659 132.917 103.659C132.998 103.653 133.08 103.651 133.161 103.651H136.628C136.71 103.651 136.791 103.651 136.872 103.66C136.9 103.661 136.926 103.672 136.946 103.691C136.966 103.709 136.978 103.735 136.981 103.762C136.992 103.884 136.997 104.006 136.997 104.128C136.997 105.528 136.997 106.929 136.997 108.329C136.997 113.562 136.997 118.796 136.997 124.029C136.997 124.723 137.062 124.613 136.417 124.617C135.316 124.623 134.215 124.617 133.113 124.617C133.008 124.617 132.897 124.632 132.789 124.64C132.789 123.43 132.789 122.22 132.789 121.011C132.789 120.902 132.789 120.793 132.789 120.685C132.782 120.46 132.762 120.441 132.523 120.432C132.495 120.432 132.47 120.432 132.441 120.432H128.892C128.641 120.44 128.634 120.445 128.629 120.68C128.626 120.775 128.629 120.87 128.629 120.965V123.779C128.629 123.942 128.629 124.105 128.629 124.268C128.633 124.594 128.634 124.594 128.978 124.599C129.059 124.599 129.141 124.599 129.223 124.599C130.283 124.599 131.343 124.599 132.404 124.599C132.539 124.583 132.676 124.592 132.807 124.626C132.807 125.89 132.807 127.155 132.807 128.419C132.807 128.8 132.815 128.793 132.42 128.793H129.035C128.621 128.793 128.627 128.773 128.627 129.189C128.627 130.303 128.627 131.418 128.627 132.533C128.627 132.642 128.627 132.751 128.619 132.859C128.618 132.893 128.604 132.926 128.579 132.95C128.555 132.974 128.522 132.988 128.488 132.988C128.393 132.997 128.297 132.998 128.203 132.998H116.449C116.381 132.998 116.313 132.998 116.245 132.998C116.06 132.989 116.024 132.957 116.015 132.788C116.009 132.679 116.015 132.57 116.015 132.461C116.015 131.36 116.015 130.259 116.015 129.158C116.015 128.8 116.01 128.797 115.655 128.796C114.553 128.796 113.451 128.796 112.35 128.796C112.228 128.796 112.106 128.796 111.981 128.79C111.961 128.791 111.941 128.787 111.922 128.779C111.903 128.771 111.887 128.759 111.873 128.744C111.859 128.729 111.849 128.712 111.843 128.692C111.837 128.673 111.835 128.652 111.837 128.632C111.837 128.524 111.837 128.415 111.837 128.306C111.837 127.232 111.837 126.158 111.837 125.084C111.837 124.975 111.837 124.867 111.831 124.758C111.832 124.741 111.83 124.724 111.824 124.709C111.818 124.693 111.809 124.678 111.798 124.666C111.786 124.654 111.772 124.644 111.756 124.637C111.741 124.631 111.724 124.627 111.707 124.628C111.626 124.622 111.544 124.621 111.462 124.621H108.037C107.97 124.621 107.902 124.621 107.834 124.624C107.739 124.624 107.679 124.669 107.675 124.77C107.672 124.878 107.671 124.987 107.671 125.096V128.229C107.671 128.311 107.671 128.393 107.671 128.474C107.666 128.786 107.666 128.79 107.351 128.79C106.236 128.792 105.122 128.792 104.007 128.79C103.898 128.79 103.789 128.79 103.68 128.793C103.533 128.801 103.5 128.838 103.492 128.997C103.487 129.105 103.492 129.214 103.492 129.324C103.492 130.425 103.492 131.526 103.492 132.627C103.492 132.989 103.488 132.996 103.131 132.996C100.575 132.996 98.0189 132.996 95.4627 132.996C95.41 132.996 95.3536 132.996 95.2993 132.996C95.1413 132.986 95.1023 132.95 95.0917 132.808C95.0859 132.726 95.0875 132.644 95.0875 132.563C95.0875 130.048 95.0875 127.533 95.0875 125.017C95.0875 124.578 95.0701 124.596 95.5128 124.596C96.6551 124.596 97.7968 124.596 98.9377 124.596C99.0457 124.596 99.1532 124.61 99.2617 124.618C99.2969 124.749 99.3067 124.886 99.2907 125.021C99.2928 126.106 99.2928 127.191 99.2907 128.277C99.2907 128.398 99.2939 128.521 99.3007 128.642C99.3011 128.659 99.3049 128.676 99.3119 128.692C99.3188 128.707 99.3288 128.721 99.3411 128.733C99.3535 128.745 99.3681 128.754 99.3841 128.76C99.4 128.766 99.417 128.769 99.434 128.768C99.5015 128.774 99.5695 128.773 99.6369 128.773C100.79 128.773 101.944 128.773 103.097 128.773C103.444 128.773 103.448 128.769 103.449 128.408C103.449 127.269 103.449 126.129 103.449 124.99C103.449 124.908 103.449 124.827 103.442 124.746C103.442 124.729 103.44 124.712 103.433 124.696C103.427 124.681 103.418 124.666 103.406 124.654C103.394 124.642 103.38 124.633 103.365 124.627C103.349 124.621 103.332 124.618 103.315 124.618C103.22 124.613 103.126 124.612 103.031 124.611C101.904 124.611 100.778 124.611 99.6522 124.611C99.5168 124.611 99.3813 124.623 99.2459 124.63C99.2544 124.467 99.2702 124.305 99.2707 124.142C99.2707 123.069 99.2707 121.995 99.2707 120.921C99.2707 120.331 99.2127 120.389 99.785 120.388C100.872 120.388 101.96 120.388 103.047 120.388C103.469 120.388 103.447 120.413 103.447 119.991C103.447 117.476 103.447 114.962 103.447 112.447C103.447 112.018 103.469 112.047 103.052 112.046H99.708C99.6127 112.046 99.5173 112.046 99.4225 112.053C99.4055 112.053 99.3887 112.057 99.3731 112.064C99.3576 112.07 99.3435 112.08 99.3318 112.092C99.3201 112.105 99.3109 112.119 99.3048 112.135C99.2988 112.151 99.2959 112.168 99.2965 112.185C99.2916 112.293 99.2891 112.402 99.2891 112.51C99.2891 113.571 99.2891 114.631 99.2891 115.691C99.2891 116.287 99.345 116.223 98.7743 116.223C96.3684 116.223 93.9626 116.223 91.5556 116.223C90.8348 116.223 90.9302 116.122 90.9265 116.846C90.9217 117.852 90.9265 118.857 90.9265 119.863C90.9265 119.959 90.9265 120.054 90.9265 120.149C90.9186 120.397 90.8996 120.412 90.6345 120.423C90.5666 120.423 90.4986 120.423 90.4307 120.423H83.0085C82.4964 120.423 82.5138 120.455 82.5143 119.941C82.5143 118.852 82.5143 117.765 82.5143 116.679C82.5143 116.584 82.5143 116.489 82.5195 116.394C82.529 116.248 82.5659 116.212 82.725 116.209C82.9832 116.204 83.2414 116.206 83.4996 116.206H86.1916C86.2865 116.206 86.3818 116.206 86.4767 116.206C86.6795 116.198 86.6969 116.178 86.7048 115.96C86.7048 115.907 86.7048 115.851 86.7048 115.797V108.261C86.7048 108.209 86.7048 108.152 86.7048 108.098C86.6959 107.899 86.6701 107.868 86.4609 107.865C86.092 107.859 85.7263 107.865 85.3596 107.862H83.0349C82.94 107.862 82.8447 107.862 82.7498 107.862C82.5543 107.852 82.5248 107.821 82.5164 107.614C82.5122 107.518 82.5164 107.423 82.5164 107.328C82.5164 103.482 82.5164 99.6356 82.5164 95.7899C82.5164 95.6545 82.5227 95.5191 82.5332 95.3837C82.5349 95.3562 82.5465 95.3304 82.5659 95.311C82.5853 95.2915 82.6112 95.2799 82.6386 95.2783C82.7472 95.2699 82.8557 95.2683 82.9643 95.2683H86.3086C86.7359 95.2683 86.7069 95.2836 86.7069 94.8689C86.7069 92.3547 86.7069 89.8402 86.7069 87.3253C86.7069 87.2985 86.7069 87.2726 86.7069 87.2437C86.7017 86.9328 86.7011 86.9275 86.3876 86.9275C85.3406 86.9275 84.2942 86.9275 83.2472 86.9275H82.9616C82.5222 86.9275 82.5143 86.9639 82.5148 86.4823C82.5148 85.3812 82.5148 84.2802 82.5148 83.1794C82.5148 82.6805 82.5274 82.7227 82.0406 82.7227C79.5528 82.7227 77.0653 82.7227 74.5779 82.7227C74.4297 82.7428 74.2788 82.7324 74.1348 82.6921L74.1443 82.7011C74.1443 81.4236 74.143 80.146 74.1406 78.8681C74.1406 78.8007 74.1406 78.7322 74.1474 78.6648C74.1472 78.6478 74.1504 78.631 74.1568 78.6154C74.1633 78.5997 74.1728 78.5855 74.1848 78.5736C74.1969 78.5617 74.2112 78.5523 74.227 78.5461C74.2427 78.5398 74.2596 78.5369 74.2765 78.5373C74.4119 78.531 74.5479 78.5294 74.6838 78.5294C77.1171 78.5294 79.5504 78.5294 81.9837 78.5294C82.5517 78.5294 82.5143 78.601 82.5143 78.0109C82.5143 72.7919 82.5143 67.5726 82.5143 62.3532C82.5143 61.6783 82.4616 61.7615 83.0986 61.7594C84.1451 61.7557 85.1915 61.7594 86.2385 61.7594C86.3471 61.7594 86.4561 61.7594 86.5647 61.7531C86.5817 61.7541 86.5987 61.7516 86.6147 61.7458C86.6307 61.74 86.6453 61.7311 86.6578 61.7194C86.6702 61.7078 86.6801 61.6938 86.6869 61.6782C86.6938 61.6626 86.6973 61.6458 86.6975 61.6287C86.7022 61.5613 86.7054 61.4933 86.7054 61.4254C86.7054 60.2701 86.7054 59.1149 86.7054 57.9597C86.7054 57.5998 86.7017 57.5961 86.3476 57.5956C85.2058 57.5956 84.0639 57.5956 82.9226 57.5956C82.5153 57.5956 82.5148 57.6151 82.5148 57.1973C82.5148 54.6684 82.5148 52.1403 82.5148 49.6131C82.5148 49.1658 82.5264 49.1943 82.9485 49.1943C84.0764 49.1943 85.2047 49.1943 86.3334 49.1943C86.7249 49.1943 86.7069 49.1943 86.7069 48.8081C86.7069 47.6666 86.7069 46.525 86.7069 45.3835C86.7069 45.0147 86.7069 45.0147 87.0579 45.0147C88.2269 45.0147 89.396 45.0147 90.565 45.0147C90.6463 45.0141 90.7276 45.0179 90.8084 45.0263C90.8358 45.028 90.8616 45.0397 90.881 45.0591C90.9004 45.0785 90.9121 45.1043 90.9138 45.1317C90.9233 45.2534 90.927 45.3756 90.9275 45.5005C90.9275 46.8461 90.9275 48.1917 90.9275 49.5373C90.9275 53.4382 90.9275 57.339 90.9275 61.2399C90.9275 61.3621 90.9275 61.4849 90.9238 61.6087C90.9159 61.7557 90.8754 61.7931 90.7194 61.8016C90.6108 61.8074 90.5018 61.8047 90.3932 61.8047H87.1717C86.6938 61.8047 86.7227 61.7852 86.7222 62.242V70.3156C86.7222 71.4845 86.7222 72.6535 86.7222 73.8224C86.7222 73.9446 86.7247 74.0676 86.7296 74.1912C86.7293 74.2256 86.7424 74.2587 86.7661 74.2836C86.7898 74.3084 86.8222 74.3231 86.8566 74.3245C86.9378 74.3321 87.0195 74.3349 87.1011 74.3329H90.526C90.6072 74.3329 90.6888 74.3287 90.77 74.3213C90.7975 74.3213 90.8239 74.3106 90.8436 74.2914C90.8633 74.2722 90.8747 74.2461 90.8754 74.2186C90.8822 74.0964 90.8864 73.9741 90.8864 73.8498C90.8864 72.8035 90.8864 71.7569 90.8864 70.7102C90.8864 70.6149 90.8864 70.52 90.8864 70.4247C90.8938 70.166 90.9038 70.1512 91.1699 70.1502C92.3249 70.1502 93.4804 70.1502 94.636 70.1502C94.7988 70.1502 94.9611 70.1344 95.1234 70.1265C95.1176 70.2218 95.107 70.3167 95.107 70.4115C95.107 71.6057 95.107 72.7999 95.107 73.9942C95.107 74.0616 95.107 74.1296 95.1139 74.197C95.114 74.2139 95.1175 74.2306 95.1241 74.2461C95.1307 74.2617 95.1402 74.2757 95.1523 74.2876C95.1643 74.2994 95.1786 74.3088 95.1942 74.3151C95.2099 74.3214 95.2266 74.3246 95.2435 74.3245C95.2841 74.3286 95.3249 74.3305 95.3657 74.3303C96.5738 74.3303 97.7823 74.3303 98.9914 74.3303C99.2586 74.3303 99.2644 74.3171 99.2712 74.0563C99.2712 74.0152 99.2712 73.9747 99.2712 73.9341V70.5379C99.2712 70.4568 99.2712 70.3751 99.2654 70.294C99.266 70.277 99.2633 70.26 99.2572 70.2441C99.2512 70.2282 99.2421 70.2137 99.2304 70.2013C99.2186 70.189 99.2045 70.1792 99.1889 70.1724C99.1733 70.1656 99.1565 70.162 99.1395 70.1618C99.018 70.1551 98.895 70.1518 98.7707 70.1518C97.6979 70.1518 96.625 70.1518 95.5522 70.1518C95.4037 70.1678 95.2536 70.1589 95.1081 70.1254C95.0991 70.0201 95.0823 69.9105 95.0823 69.803C95.0801 68.6622 95.0801 67.5217 95.0823 66.3816C95.0823 66.2867 95.0823 66.1919 95.0907 66.097C95.09 66.0801 95.0928 66.0633 95.0989 66.0475C95.1049 66.0317 95.1141 66.0173 95.1259 66.0051C95.1376 65.9929 95.1518 65.9833 95.1674 65.9767C95.1829 65.9702 95.1997 65.9668 95.2166 65.9669C95.3389 65.9611 95.4606 65.9585 95.5855 65.958H98.8033C98.9119 65.958 99.0204 65.958 99.129 65.9506C99.1632 65.9519 99.1965 65.9396 99.2217 65.9164C99.2468 65.8932 99.2618 65.8609 99.2633 65.8267C99.2707 65.7461 99.2717 65.6645 99.2717 65.5834C99.2717 64.4429 99.2717 63.3024 99.2717 62.1619C99.2717 62.0939 99.2718 62.026 99.2686 61.9585C99.2612 61.8379 99.2227 61.8031 99.0857 61.7963C98.9772 61.7915 98.8687 61.7926 98.7601 61.7926H95.5017C95.088 61.7926 95.0833 61.8089 95.0838 61.3595C95.0838 60.2331 95.0838 59.1063 95.0838 57.9792C95.0838 57.5503 95.0838 57.5719 95.4801 57.5719L99.268 57.5687L99.2554 57.5545ZM107.683 99.4858H104.829C103.089 99.4858 101.349 99.4858 99.6084 99.4858C99.2923 99.4858 99.2923 99.4911 99.287 99.8019C99.287 99.8968 99.287 99.9921 99.287 100.087V103.268C99.287 103.683 99.2955 103.661 98.8776 103.661H95.5744C95.4653 103.661 95.3568 103.661 95.2482 103.667C95.2142 103.666 95.1808 103.678 95.1554 103.7C95.1299 103.723 95.1145 103.755 95.1123 103.789C95.107 103.829 95.1044 103.87 95.1044 103.91C95.1044 105.134 95.1044 106.357 95.1044 107.58C95.1044 107.805 95.1212 107.818 95.3283 107.825C95.4232 107.828 95.5185 107.825 95.6134 107.825H107.153C107.248 107.825 107.344 107.825 107.438 107.825C107.612 107.817 107.644 107.788 107.646 107.601C107.651 107.152 107.646 106.705 107.646 106.255C107.646 105.465 107.646 104.679 107.646 103.89C107.646 103.672 107.669 103.657 107.877 103.648C107.929 103.648 107.986 103.648 108.04 103.648H111.465C111.547 103.648 111.628 103.648 111.71 103.655C111.744 103.655 111.777 103.668 111.801 103.692C111.825 103.716 111.839 103.749 111.84 103.783C111.846 103.85 111.849 103.918 111.849 103.986C111.849 106.555 111.849 109.124 111.849 111.693C111.849 112.046 111.843 112.049 111.484 112.05C110.369 112.05 109.255 112.05 108.14 112.05C108.018 112.05 107.895 112.053 107.771 112.06C107.743 112.061 107.717 112.073 107.698 112.092C107.679 112.112 107.669 112.138 107.669 112.166C107.663 112.261 107.66 112.356 107.66 112.451C107.66 113.54 107.66 114.627 107.66 115.713C107.66 116.267 107.607 116.212 108.164 116.213C110.623 116.213 113.084 116.213 115.546 116.213C115.668 116.213 115.791 116.213 115.915 116.221C115.932 116.222 115.949 116.225 115.964 116.233C115.98 116.24 115.994 116.25 116.005 116.262C116.017 116.275 116.026 116.289 116.032 116.305C116.038 116.321 116.04 116.338 116.04 116.355C116.046 116.463 116.048 116.572 116.048 116.681C116.048 117.755 116.048 118.828 116.048 119.902C116.048 120.011 116.049 120.12 116.051 120.228C116.051 120.322 116.092 120.383 116.193 120.386C116.275 120.39 116.356 120.391 116.438 120.391C117.566 120.391 118.694 120.391 119.822 120.391C120.221 120.391 120.212 120.391 120.212 120.018V112.433C120.212 112.045 120.222 112.048 119.836 112.048C118.708 112.048 117.58 112.048 116.451 112.048C116.343 112.048 116.234 112.045 116.126 112.037C116.099 112.036 116.072 112.025 116.053 112.005C116.033 111.986 116.022 111.959 116.021 111.932C116.012 111.796 116.007 111.661 116.007 111.525C116.007 107.665 116.007 103.805 116.007 99.9447C116.007 99.4379 116.049 99.4847 115.547 99.4842C112.928 99.4846 110.307 99.4851 107.683 99.4858ZM86.7017 80.6537C86.7017 80.0283 86.7017 79.4034 86.7017 78.7781C86.7017 78.5594 86.6801 78.5452 86.4698 78.5368C86.4171 78.5368 86.3613 78.5368 86.307 78.5368H82.9221C82.8404 78.5368 82.7593 78.5368 82.6776 78.5431C82.6608 78.5424 82.6439 78.5451 82.628 78.551C82.6122 78.557 82.5978 78.566 82.5855 78.5777C82.5733 78.5893 82.5635 78.6033 82.5568 78.6188C82.5501 78.6343 82.5465 78.651 82.5464 78.6679C82.5401 78.7491 82.5385 78.8307 82.5385 78.9119C82.5385 80.0534 82.5385 81.1949 82.5385 82.3365C82.5385 82.4181 82.5417 82.4998 82.548 82.5804C82.548 82.6075 82.5583 82.6335 82.577 82.6531C82.5956 82.6727 82.6211 82.6844 82.6481 82.6858C82.7156 82.6921 82.7835 82.6958 82.8515 82.6963H86.3581C86.4261 82.6963 86.4946 82.6963 86.5621 82.691C86.5789 82.692 86.5958 82.6896 86.6118 82.684C86.6277 82.6783 86.6423 82.6694 86.6548 82.658C86.6672 82.6465 86.6772 82.6327 86.6842 82.6173C86.6911 82.6019 86.695 82.5852 86.6954 82.5683C86.7006 82.4866 86.7027 82.4055 86.7032 82.3238C86.7029 81.7671 86.7024 81.2104 86.7017 80.6537ZM118.154 124.616H116.524C116.429 124.616 116.334 124.616 116.239 124.616C116.099 124.622 116.067 124.652 116.059 124.779C116.053 124.86 116.055 124.942 116.055 125.023C116.055 126.138 116.055 127.252 116.055 128.366C116.055 128.447 116.055 128.528 116.059 128.61C116.068 128.736 116.102 128.768 116.24 128.773C116.308 128.777 116.376 128.773 116.444 128.773H119.827C119.895 128.773 119.963 128.773 120.031 128.77C120.165 128.762 120.206 128.727 120.215 128.606C120.22 128.538 120.219 128.47 120.219 128.402V124.977C120.219 124.909 120.219 124.841 120.216 124.774C120.218 124.754 120.215 124.733 120.209 124.714C120.203 124.695 120.192 124.677 120.178 124.662C120.165 124.647 120.148 124.635 120.129 124.627C120.111 124.62 120.09 124.616 120.07 124.616C119.989 124.612 119.907 124.611 119.826 124.611L118.154 124.616ZM116.013 122.499C116.013 121.929 116.013 121.359 116.013 120.79C116.013 120.436 116.009 120.432 115.652 120.432C114.513 120.432 113.374 120.432 112.234 120.432C112.166 120.432 112.098 120.432 112.031 120.437C111.912 120.447 111.87 120.493 111.861 120.619C111.857 120.671 111.857 120.727 111.857 120.782C111.857 121.934 111.857 123.087 111.857 124.24C111.857 124.595 111.862 124.599 112.223 124.599C113.363 124.601 114.502 124.601 115.641 124.599C115.682 124.599 115.723 124.599 115.764 124.599C115.988 124.59 116.004 124.573 116.013 124.33C116.013 124.278 116.013 124.222 116.013 124.168C116.014 123.611 116.014 123.055 116.013 122.499V122.499ZM126.469 120.392C127.093 120.392 127.717 120.392 128.341 120.392C128.561 120.392 128.573 120.373 128.582 120.162C128.582 120.11 128.582 120.054 128.582 120C128.582 118.874 128.582 117.748 128.582 116.622C128.582 116.541 128.582 116.46 128.574 116.379C128.574 116.358 128.569 116.339 128.561 116.32C128.553 116.302 128.541 116.285 128.526 116.272C128.511 116.258 128.494 116.248 128.475 116.241C128.456 116.234 128.436 116.232 128.416 116.233C128.363 116.233 128.307 116.229 128.253 116.229C127.087 116.229 125.92 116.229 124.754 116.229C124.442 116.229 124.438 116.241 124.428 116.546C124.428 116.559 124.428 116.573 124.428 116.586V120.044C124.428 120.086 124.428 120.126 124.428 120.167C124.438 120.355 124.463 120.383 124.639 120.391C124.734 120.395 124.829 120.391 124.924 120.391L126.469 120.392ZM126.473 128.778C127.056 128.778 127.64 128.778 128.223 128.778C128.578 128.778 128.582 128.773 128.583 128.418C128.585 127.265 128.585 126.112 128.583 124.958C128.583 124.891 128.583 124.823 128.577 124.755C128.577 124.738 128.575 124.721 128.569 124.705C128.563 124.69 128.554 124.675 128.543 124.663C128.531 124.65 128.517 124.641 128.501 124.634C128.486 124.627 128.469 124.624 128.452 124.623C128.371 124.619 128.289 124.616 128.208 124.616C127.068 124.616 125.929 124.616 124.789 124.616C124.433 124.616 124.428 124.62 124.428 124.973C124.426 126.127 124.426 127.28 124.428 128.433C124.428 128.485 124.428 128.542 124.432 128.595C124.443 128.73 124.477 128.767 124.601 128.774C124.682 128.779 124.764 128.778 124.845 128.778L126.473 128.778Z" fill="black"/>
<path d="M63.6608 132.999C58.9576 132.999 54.2543 132.999 49.5511 132.999C48.9393 132.999 49.002 133.062 49.002 132.457C49.002 123.037 49.002 113.618 49.002 104.199C49.002 103.577 48.9314 103.649 49.5369 103.649C58.9707 103.649 68.4046 103.649 77.8385 103.649C78.3859 103.649 78.3528 103.594 78.3528 104.145V132.485C78.3528 133.04 78.3786 133 77.8517 133L63.6608 132.999ZM63.6671 128.778C66.9979 128.778 70.3285 128.778 73.659 128.778C74.1785 128.778 74.1332 128.826 74.1332 128.289C74.1332 125.707 74.1332 123.124 74.1332 120.541C74.1332 116.45 74.1332 112.358 74.1332 108.265C74.1332 107.863 74.1332 107.863 73.7312 107.859H53.7084C53.172 107.859 53.2084 107.826 53.2084 108.375C53.2084 115.009 53.2084 121.642 53.2084 128.275C53.2084 128.847 53.1763 128.776 53.7153 128.776C57.0331 128.779 60.3504 128.78 63.6671 128.778Z" fill="black"/>
<path d="M49.004 59.6911C49.004 54.974 49.004 50.2572 49.004 45.5407C49.004 44.9285 48.9381 45.0038 49.5515 45.0038C58.9724 45.0038 68.3931 45.0038 77.8136 45.0038C78.4032 45.0038 78.3542 44.9258 78.3542 45.5539C78.3542 54.9738 78.3542 64.3935 78.3542 73.8131C78.3542 74.429 78.3884 74.3542 77.8004 74.3547C68.3799 74.3547 58.9592 74.3547 49.5383 74.3547C48.946 74.3547 49.0029 74.4248 49.0029 73.7999C49.0015 69.0965 49.0019 64.3935 49.004 59.6911ZM63.6743 70.133C66.9915 70.133 70.3084 70.133 73.6251 70.133C74.1884 70.133 74.1373 70.1915 74.1373 69.6404C74.1373 62.9938 74.1373 56.3473 74.1373 49.7008C74.1373 49.194 74.1858 49.2208 73.6483 49.2208H53.7067C53.5975 49.2208 53.4888 49.2226 53.3806 49.2261C53.3603 49.2243 53.3399 49.2267 53.3207 49.2332C53.3014 49.2398 53.2838 49.2503 53.2689 49.2641C53.254 49.2779 53.2421 49.2947 53.2341 49.3134C53.2262 49.3321 53.2222 49.3523 53.2225 49.3726C53.2167 49.4943 53.214 49.617 53.214 49.7414C53.214 56.3738 53.214 63.0068 53.214 69.6404C53.214 70.2015 53.1772 70.1346 53.7262 70.1346C57.0415 70.1349 60.3569 70.1344 63.6723 70.133H63.6743Z" fill="black"/>
<path d="M122.35 45.0026C127.053 45.0026 131.756 45.0026 136.46 45.0026C137.051 45.0026 137 44.9177 137 45.5515C137 54.9708 137 64.39 137 73.8092C137 74.4351 137.038 74.3529 136.451 74.3529C127.031 74.3529 117.61 74.3529 108.19 74.3529C107.601 74.3529 107.652 74.4225 107.652 73.7997C107.652 64.3805 107.652 54.9613 107.652 45.5421C107.652 44.9277 107.59 45.002 108.198 45.002C112.915 45.001 117.632 45.0012 122.35 45.0026ZM122.313 70.1338H132.263C132.399 70.1338 132.535 70.1301 132.67 70.1217C132.698 70.1217 132.725 70.1106 132.745 70.0908C132.764 70.0711 132.776 70.0443 132.776 70.0163C132.783 69.8809 132.788 69.745 132.788 69.6091C132.788 65.586 132.788 61.5625 132.788 57.5387C132.788 54.9423 132.788 52.3461 132.788 49.7501C132.788 49.6142 132.784 49.4782 132.776 49.3428C132.775 49.3153 132.763 49.2892 132.744 49.2697C132.724 49.2502 132.698 49.2387 132.671 49.2375C132.535 49.2269 132.4 49.2217 132.264 49.2217C125.63 49.2217 118.996 49.2217 112.362 49.2217C111.812 49.2217 111.856 49.1864 111.856 49.729C111.856 56.3622 111.856 62.9956 111.856 69.6291C111.856 70.1986 111.818 70.1333 112.359 70.1333C115.676 70.134 118.994 70.1338 122.311 70.1328L122.313 70.1338Z" fill="black"/>
<path d="M61.5642 91.0998C61.5642 89.8512 61.5658 88.6027 61.569 87.3544C61.569 86.8676 61.5279 86.8844 62.0269 86.8844H65.3254C65.8027 86.8844 65.7811 86.8628 65.7811 87.3586V90.6156C65.7811 91.1183 65.7711 91.0798 66.248 91.0803C68.7452 91.0803 71.2426 91.0803 73.7402 91.0803C73.8756 91.0803 74.0105 91.0909 74.1459 91.0961L74.138 91.0882C74.1422 91.2236 74.1501 91.3596 74.1501 91.495C74.1501 92.5961 74.1501 93.6971 74.1501 94.7979C74.1501 94.9069 74.1501 95.0155 74.1575 95.124C74.1568 95.141 74.1597 95.1579 74.1658 95.1737C74.1719 95.1896 74.1812 95.204 74.1931 95.2161C74.205 95.2283 74.2192 95.2379 74.2349 95.2443C74.2506 95.2507 74.2675 95.2539 74.2845 95.2536C74.393 95.2605 74.5021 95.2605 74.6106 95.2605H77.8327C77.9413 95.2605 78.0503 95.2605 78.1589 95.2605C78.3074 95.2673 78.3385 95.3015 78.3491 95.4622C78.3538 95.5302 78.3528 95.5982 78.3528 95.6661V99.0507C78.3528 99.1324 78.3528 99.2145 78.348 99.2957C78.337 99.4406 78.299 99.4727 78.1373 99.4796C78.0561 99.4832 77.9745 99.4796 77.8928 99.4796C75.3914 99.4796 72.8899 99.4796 70.3885 99.4796C69.9411 99.4796 69.9353 99.5386 69.9359 99.046C69.9359 97.9448 69.9359 96.8437 69.9359 95.7425C69.9359 95.261 69.9506 95.281 69.4616 95.281C68.3604 95.281 67.2591 95.281 66.1579 95.281C65.7832 95.281 65.7801 95.2857 65.779 95.6714C65.779 96.7862 65.779 97.9009 65.779 99.0154C65.779 99.5454 65.7874 99.4769 65.3148 99.478C64.2136 99.4811 63.1125 99.4811 62.0116 99.478C61.903 99.478 61.7939 99.4748 61.6859 99.468C61.6721 99.468 61.6584 99.4652 61.6456 99.4599C61.6328 99.4546 61.6212 99.4469 61.6114 99.4371C61.6016 99.4273 61.5939 99.4157 61.5886 99.4029C61.5833 99.3901 61.5806 99.3764 61.5806 99.3626C61.5716 99.2414 61.5669 99.1192 61.5669 98.9969C61.5669 97.8958 61.5669 96.7949 61.5669 95.6941C61.5669 95.2979 61.6027 95.2768 61.1764 95.2773C60.0485 95.2773 58.9202 95.2773 57.7915 95.2773C57.7641 95.2773 57.7388 95.2773 57.7099 95.2773C57.4106 95.2852 57.409 95.2857 57.4027 95.5697C57.4027 95.6645 57.4027 95.7599 57.4027 95.8553C57.4027 96.9153 57.4027 97.9755 57.4027 99.0359C57.4027 99.1445 57.3979 99.253 57.39 99.361C57.3886 99.3882 57.3769 99.4139 57.3574 99.433C57.3379 99.452 57.3119 99.463 57.2846 99.4638C57.1903 99.4722 57.095 99.4753 57.0001 99.4753H49.4125C49.0026 99.4753 49.0005 99.5048 49.0005 99.0839C49.0005 97.942 49.0005 96.8005 49.0005 95.6593C49.0005 95.5776 49.0005 95.496 49.0052 95.4143C49.01 95.3231 49.0506 95.2599 49.1512 95.2562C49.2518 95.2525 49.3688 95.252 49.4773 95.252C50.5923 95.252 51.707 95.252 52.8216 95.252C53.1968 95.252 53.181 95.2578 53.181 94.8969C53.181 93.8232 53.181 92.7494 53.181 91.6757C53.181 91.5803 53.181 91.485 53.181 91.3901C53.1863 91.0782 53.1868 91.0782 53.5024 91.0714H53.543L61.5774 91.0751L61.5821 94.741C61.5821 94.8495 61.5821 94.9586 61.5853 95.0671C61.5916 95.2078 61.6211 95.2394 61.7476 95.2483C61.815 95.2531 61.883 95.252 61.951 95.252H65.3759C65.4571 95.252 65.5387 95.252 65.6199 95.2452C65.6367 95.2455 65.6535 95.2423 65.669 95.2359C65.6846 95.2294 65.6986 95.2197 65.7103 95.2076C65.7219 95.1954 65.7309 95.1809 65.7367 95.1651C65.7424 95.1492 65.7448 95.1324 65.7437 95.1156C65.7479 95.0481 65.7495 94.9802 65.7495 94.9122C65.7495 93.7577 65.7495 92.6035 65.7495 91.4497C65.7495 91.368 65.7464 91.2869 65.7395 91.2057C65.7387 91.1788 65.7279 91.1532 65.7093 91.1338C65.6908 91.1143 65.6657 91.1024 65.6389 91.1004C65.558 91.0925 65.4767 91.0888 65.3954 91.0893C64.1178 91.0949 62.8408 91.0984 61.5642 91.0998Z" fill="black"/>
<path d="M99.2643 57.5645C99.2643 56.2863 99.2655 55.0083 99.268 53.7305C99.268 53.6778 99.268 53.6214 99.2648 53.5677C99.2559 53.4434 99.2227 53.4133 99.0809 53.4096C98.9724 53.4049 98.8639 53.4096 98.7548 53.4096H95.4916C95.0896 53.4096 95.0801 53.4413 95.0801 53.0166C95.0801 50.4743 95.0801 47.9321 95.0801 45.3898C95.0801 45.3086 95.0801 45.227 95.0885 45.1458C95.0882 45.1288 95.0913 45.112 95.0976 45.0962C95.1039 45.0804 95.1133 45.066 95.1253 45.0539C95.1372 45.0418 95.1514 45.0322 95.1671 45.0256C95.1827 45.0191 95.1996 45.0157 95.2166 45.0157C95.3114 45.0109 95.4062 45.0078 95.5016 45.0078H103.048C103.116 45.0078 103.183 45.0078 103.251 45.0078C103.455 45.0168 103.482 45.0384 103.483 45.2523C103.487 45.9324 103.483 46.6121 103.483 47.2917C103.483 47.8081 103.483 48.3245 103.483 48.8412C103.484 48.9228 103.481 49.0045 103.473 49.0857C103.47 49.1199 103.454 49.1519 103.429 49.1755C103.404 49.1991 103.372 49.2127 103.337 49.2137C103.229 49.2232 103.12 49.2232 103.012 49.2237H99.7486C99.2485 49.2237 99.2838 49.209 99.2838 49.6906C99.2838 50.7646 99.2838 51.8387 99.2838 52.9128C99.2838 52.994 99.2838 53.0756 99.2838 53.1573C99.2928 53.3617 99.3149 53.3891 99.5288 53.3902C100.222 53.3944 100.916 53.3902 101.609 53.3902C102.112 53.3902 102.615 53.3902 103.118 53.3902C103.199 53.3893 103.281 53.3936 103.362 53.4028C103.389 53.4057 103.414 53.4178 103.433 53.437C103.452 53.4561 103.464 53.4812 103.467 53.5082C103.476 53.5892 103.48 53.6706 103.479 53.7521C103.479 54.9073 103.479 56.0627 103.479 57.2183C103.479 57.5787 103.475 57.5829 103.12 57.5834C101.896 57.5855 100.672 57.5855 99.4487 57.5834C99.3816 57.5791 99.3149 57.5702 99.249 57.5566L99.2643 57.5645Z" fill="black"/>
<path d="M86.7306 132.999H83.0201C82.8979 132.999 82.7756 132.999 82.6539 132.989C82.6196 132.988 82.5871 132.973 82.5629 132.949C82.5387 132.925 82.5245 132.892 82.5232 132.858C82.514 132.763 82.5103 132.668 82.5122 132.573C82.5122 130.058 82.5122 127.544 82.5122 125.031C82.5122 124.963 82.5122 124.895 82.5122 124.827C82.5217 124.634 82.5433 124.611 82.723 124.602C82.7909 124.598 82.8589 124.602 82.9269 124.602H86.3107C86.737 124.602 86.7191 124.589 86.7191 124.995C86.7191 126.123 86.7191 127.251 86.7191 128.379C86.7191 128.79 86.7075 128.781 87.1216 128.781C88.2633 128.781 89.4049 128.781 90.5466 128.781C90.9207 128.781 90.9239 128.784 90.9244 129.167C90.9244 130.322 90.9244 131.477 90.9244 132.632C90.9244 132.995 90.9202 133.001 90.564 133.001C89.285 133.001 88.0072 133.001 86.7306 132.999Z" fill="black"/>
<path d="M49.0038 82.6896C49.0038 81.4672 49.0038 80.2447 49.0038 79.0221C49.0038 78.8998 49.0038 78.7776 49.0117 78.6559C49.0113 78.639 49.0143 78.6222 49.0206 78.6065C49.0268 78.5908 49.0363 78.5765 49.0483 78.5646C49.0603 78.5527 49.0745 78.5433 49.0903 78.5371C49.106 78.5308 49.1228 78.5279 49.1397 78.5284C49.2346 78.5226 49.33 78.5205 49.4248 78.5205H57.0456C57.4012 78.5258 57.4044 78.5258 57.4049 78.8835C57.4049 80.0377 57.4049 81.1922 57.4049 82.3471C57.4049 82.4282 57.4049 82.5099 57.3955 82.591C57.3946 82.6185 57.3838 82.6446 57.3649 82.6645C57.3461 82.6844 57.3205 82.6967 57.2932 82.699C57.172 82.7101 57.0498 82.7154 56.9281 82.7154C55.8549 82.7154 54.7818 82.7154 53.7086 82.7154C53.1817 82.7154 53.2107 82.6722 53.2107 83.2312V86.4097C53.2107 86.5183 53.2107 86.6273 53.2044 86.7358C53.1959 86.8633 53.1517 86.9081 53.0336 86.9166C52.9662 86.9218 52.8977 86.9202 52.8303 86.9202C51.6753 86.9202 50.5204 86.9202 49.3658 86.9202C49.0085 86.9202 49.0043 86.9166 49.0038 86.5609C49.0013 85.2708 49.0013 83.9804 49.0038 82.6896Z" fill="black"/>
<path d="M113.947 78.5199C115.89 78.5199 117.832 78.5199 119.773 78.5199C120.277 78.5199 120.234 78.4857 120.235 78.9809C120.235 80.0673 120.235 81.1537 120.235 82.2401C120.235 82.3217 120.235 82.4034 120.235 82.4845C120.227 82.6863 120.207 82.7053 119.991 82.7132C119.895 82.7169 119.8 82.7132 119.705 82.7132H108.094C107.616 82.7132 107.652 82.738 107.652 82.2712C107.652 81.1711 107.652 80.0712 107.652 78.9714C107.652 78.4756 107.622 78.5189 108.122 78.5183C110.064 78.5187 112.006 78.5192 113.947 78.5199Z" fill="black"/>
<path d="M132.796 82.69C134.005 82.69 135.214 82.69 136.424 82.699C137.051 82.7032 136.997 82.5999 136.999 83.2522C137.001 84.3526 137.001 85.4532 136.999 86.554C136.999 86.9165 136.993 86.9197 136.642 86.9202C135.514 86.9202 134.387 86.9202 133.259 86.9202C132.758 86.9202 132.804 86.8854 132.803 87.3859C132.803 88.5003 132.803 89.6146 132.803 90.7284C132.803 91.0914 132.799 91.0945 132.452 91.0972C131.283 91.0972 130.115 91.0972 128.946 91.0972C128.865 91.0973 128.784 91.0933 128.703 91.085C128.675 91.0828 128.649 91.0705 128.63 91.0506C128.61 91.0306 128.599 91.0043 128.597 90.9765C128.588 90.8957 128.584 90.8144 128.584 90.7331C128.584 89.5782 128.584 88.4235 128.584 87.269C128.583 87.1876 128.586 87.1061 128.594 87.025C128.596 86.9907 128.611 86.9585 128.636 86.9344C128.66 86.9104 128.693 86.8961 128.727 86.8944C128.835 86.8854 128.944 86.8854 129.053 86.8854H132.191C132.286 86.8854 132.382 86.8854 132.477 86.8854C132.77 86.8781 132.779 86.8691 132.785 86.5925C132.785 86.4971 132.785 86.4023 132.785 86.3069C132.785 85.2061 132.785 84.1057 132.785 83.0056C132.785 82.9003 132.796 82.7901 132.803 82.6821L132.796 82.69Z" fill="black"/>
<path d="M74.1458 91.0983C74.1419 90.1878 74.1384 89.2778 74.1352 88.3681C74.1352 87.9603 74.1352 87.5525 74.1352 87.1452C74.1352 86.9571 74.1041 86.9276 73.9276 86.9234C73.6968 86.9182 73.466 86.9234 73.2347 86.9234H70.4626C70.3541 86.9234 70.245 86.9234 70.1365 86.9208C69.9884 86.9145 69.9557 86.8786 69.9441 86.7216C69.9399 86.669 69.9404 86.6126 69.9404 86.5583C69.9404 85.3897 69.9404 84.2213 69.9404 83.0531C69.9404 83.012 69.9404 82.9714 69.9404 82.9309C69.9526 82.7259 69.9715 82.7027 70.186 82.7022C71.1645 82.6996 72.1429 82.7022 73.1214 82.7022C73.4613 82.7022 73.8006 82.6991 74.1405 82.6969L74.1305 82.688C74.1373 82.8229 74.15 82.9572 74.15 83.0921C74.15 84.2322 74.15 85.3718 74.15 86.5119C74.15 86.8844 74.1537 86.8881 74.5373 86.8886C75.6501 86.8886 76.7631 86.8886 77.8763 86.8886C78.3627 86.8886 78.3505 86.8644 78.3505 87.3465C78.3505 88.4455 78.3505 89.5445 78.3505 90.6441C78.3505 90.7495 78.3463 90.8607 78.339 90.9687C78.3379 91.003 78.3233 91.0354 78.2985 91.0591C78.2736 91.0827 78.2405 91.0957 78.2062 91.0951C78.1535 91.1004 78.0982 91.1009 78.0439 91.1009L74.1352 91.0946L74.1458 91.0983Z" fill="black"/>
<path d="M132.773 99.4859H129.103C129.008 99.4859 128.913 99.4859 128.818 99.4859C128.618 99.4786 128.595 99.4543 128.585 99.2404C128.582 99.1725 128.585 99.1045 128.585 99.0365C128.585 97.922 128.585 96.8077 128.585 95.6936C128.585 95.6125 128.585 95.5303 128.59 95.4491C128.601 95.3027 128.636 95.2721 128.798 95.2653C128.879 95.2616 128.961 95.2653 129.043 95.2653C131.543 95.2653 134.043 95.2653 136.544 95.2653C137.011 95.2653 137 95.1994 137 95.7342V98.9954C137 99.5539 137.018 99.486 136.526 99.487C135.273 99.4881 134.023 99.4859 132.773 99.4859Z" fill="black"/>
<path d="M132.805 82.6805C132.689 82.7196 132.565 82.7311 132.444 82.7143C129.905 82.7143 127.365 82.7143 124.826 82.7143C124.731 82.7143 124.636 82.7143 124.541 82.7064C124.524 82.7069 124.507 82.7041 124.491 82.698C124.475 82.692 124.461 82.6829 124.448 82.6712C124.436 82.6594 124.426 82.6454 124.419 82.6298C124.412 82.6142 124.409 82.5975 124.408 82.5804C124.404 82.4993 124.401 82.4176 124.401 82.3365C124.401 81.1957 124.401 80.0552 124.401 78.9151C124.401 78.8624 124.401 78.8065 124.401 78.7523C124.409 78.5473 124.428 78.5289 124.643 78.5204C124.724 78.5173 124.806 78.5204 124.888 78.5204C127.359 78.5204 129.83 78.5204 132.301 78.5204C132.858 78.5204 132.8 78.4678 132.8 79.0247C132.8 80.247 132.799 81.4689 132.795 82.6906L132.805 82.6805Z" fill="black"/>
<path d="M61.5684 80.6248C61.5684 80.0681 61.5684 79.5115 61.5684 78.9552C61.5684 78.8603 61.5683 78.765 61.5731 78.6701C61.5778 78.5753 61.6363 78.5279 61.7312 78.5242C61.7839 78.5242 61.8397 78.5205 61.894 78.5205C63.0746 78.5205 64.2556 78.5205 65.437 78.5205C65.5049 78.5205 65.5729 78.5205 65.6403 78.5274C65.6744 78.5276 65.7071 78.5412 65.7314 78.5652C65.7556 78.5893 65.7694 78.6218 65.77 78.6559C65.7774 78.7365 65.781 78.8182 65.781 78.8993C65.781 80.0401 65.781 81.1805 65.781 82.3202C65.781 82.3729 65.781 82.4288 65.781 82.483C65.7705 82.6827 65.7457 82.7122 65.5344 82.7133C64.8695 82.717 64.204 82.7133 63.539 82.7133H62.032C61.9235 82.7133 61.815 82.7133 61.7069 82.7043C61.69 82.7047 61.6732 82.7017 61.6575 82.6955C61.6418 82.6893 61.6275 82.6799 61.6154 82.668C61.6034 82.6561 61.594 82.6419 61.5876 82.6262C61.5812 82.6105 61.5781 82.5937 61.5784 82.5768C61.5731 82.482 61.571 82.3866 61.571 82.2918C61.5692 81.7368 61.5684 81.1811 61.5684 80.6248Z" fill="black"/>
<path d="M99.2715 95.2477C99.1835 95.2844 99.0873 95.2973 98.9927 95.2851C97.8128 95.2851 96.6331 95.2851 95.4535 95.2851C95.0883 95.2851 95.0846 95.2798 95.0846 94.9331C95.0818 93.7674 95.0818 92.6012 95.0846 91.4348C95.0853 91.3536 95.0903 91.2725 95.0994 91.1919C95.1018 91.1647 95.1142 91.1393 95.1343 91.1208C95.1544 91.1023 95.1806 91.0919 95.2079 91.0918C95.2754 91.086 95.3428 91.0818 95.4108 91.0818C96.6448 91.0818 97.8789 91.0818 99.1129 91.0818C99.1669 91.0844 99.2207 91.0898 99.2742 91.0981L99.2662 91.0892C99.2741 91.1692 99.2889 91.2472 99.2889 91.3294C99.2889 92.5451 99.2889 93.7605 99.2889 94.9758C99.2889 95.0696 99.2736 95.1634 99.2657 95.2572L99.2715 95.2477Z" fill="black"/>
<path d="M63.6631 124.616C61.7199 124.616 59.777 124.616 57.8344 124.616C57.3565 124.616 57.366 124.675 57.366 124.157V112.501C57.366 112.016 57.3386 112.029 57.8286 112.029H69.5261C70.0088 112.029 69.9698 112.029 69.9698 112.475C69.9698 116.373 69.9698 120.272 69.9698 124.171C69.9698 124.645 69.9993 124.616 69.5314 124.616L63.6631 124.616Z" fill="black"/>
<path d="M57.3658 59.651V53.8592C57.3658 53.3608 57.3373 53.3887 57.8258 53.3887H69.4911C69.5591 53.3887 69.6276 53.3887 69.695 53.3887C69.9522 53.3971 69.9638 53.4093 69.9701 53.6727C69.9701 53.7544 69.9701 53.836 69.9701 53.9171C69.9701 57.765 69.9701 61.6125 69.9701 65.4596C69.9701 66.0181 70.0228 65.9686 69.4737 65.9686C65.5988 65.9686 61.7239 65.9686 57.8489 65.9686C57.781 65.9686 57.713 65.9686 57.645 65.9686C57.3884 65.9617 57.3716 65.9491 57.3673 65.6862C57.3626 65.36 57.3673 65.0339 57.3673 64.7078L57.3658 59.651Z" fill="black"/>
<path d="M122.315 65.9697C120.372 65.9697 118.429 65.9697 116.487 65.9697C115.992 65.9697 116.012 66.014 116.012 65.515C116.012 61.6296 116.012 57.7442 116.012 53.8587C116.012 53.3651 115.977 53.3888 116.472 53.3882C120.371 53.3882 124.27 53.3882 128.169 53.3882C128.654 53.3882 128.619 53.3772 128.619 53.825C128.619 57.7238 128.619 61.6226 128.619 65.5214C128.619 65.9955 128.65 65.9687 128.182 65.9687L122.315 65.9697Z" fill="black"/>
</g>
<defs>
<filter id="filter0_d_604_371" x="0" y="0" width="199" height="199" filterUnits="userSpaceOnUse" color-interpolation-filters="sRGB">
<feFlood flood-opacity="0" result="BackgroundImageFix"/>
<feColorMatrix in="SourceAlpha" type="matrix" values="0 0 0 0 0 0 0 0 0 0 0 0 0 0 0 0 0 0 127 0" result="hardAlpha"/>
<feOffset dx="7" dy="10"/>
<feGaussianBlur stdDeviation="25"/>
<feColorMatrix type="matrix" values="0 0 0 0 0.910906 0 0 0 0 0.886736 0 0 0 0 0.941667 0 0 0 1 0"/>
<feBlend mode="darken" in2="BackgroundImageFix" result="effect1_dropShadow_604_371"/>
<feBlend mode="normal" in="SourceGraphic" in2="effect1_dropShadow_604_371" result="shape"/>
</filter>
<clipPath id="clip0_604_371">
<rect width="88" height="88" fill="white" transform="translate(49 45)"/>
</clipPath>
</defs>
</svg>
