<svg width="340" height="199" viewBox="0 0 340 199" fill="none" xmlns="http://www.w3.org/2000/svg">
<path d="M172.655 75.32C172.042 75.32 171.455 75.2333 170.895 75.06C170.335 74.8867 169.822 74.6267 169.355 74.28C168.889 73.9333 168.482 73.5133 168.135 73.02C167.789 72.5133 167.515 71.9267 167.315 71.26L169.855 70.26C170.042 70.98 170.369 71.58 170.835 72.06C171.302 72.5267 171.915 72.76 172.675 72.76C172.955 72.76 173.222 72.7267 173.475 72.66C173.742 72.58 173.975 72.4733 174.175 72.34C174.389 72.1933 174.555 72.0133 174.675 71.8C174.795 71.5867 174.855 71.34 174.855 71.06C174.855 70.7933 174.809 70.5533 174.715 70.34C174.622 70.1267 174.462 69.9267 174.235 69.74C174.022 69.5533 173.735 69.3733 173.375 69.2C173.029 69.0267 172.595 68.8467 172.075 68.66L171.195 68.34C170.809 68.2067 170.415 68.0267 170.015 67.8C169.629 67.5733 169.275 67.3 168.955 66.98C168.635 66.66 168.369 66.2867 168.155 65.86C167.955 65.42 167.855 64.9267 167.855 64.38C167.855 63.82 167.962 63.3 168.175 62.82C168.402 62.3267 168.715 61.9 169.115 61.54C169.529 61.1667 170.015 60.88 170.575 60.68C171.149 60.4667 171.782 60.36 172.475 60.36C173.195 60.36 173.815 60.46 174.335 60.66C174.869 60.8467 175.315 61.0933 175.675 61.4C176.049 61.6933 176.349 62.02 176.575 62.38C176.802 62.74 176.969 63.08 177.075 63.4L174.695 64.4C174.562 64 174.315 63.64 173.955 63.32C173.609 63 173.129 62.84 172.515 62.84C171.929 62.84 171.442 62.98 171.055 63.26C170.669 63.5267 170.475 63.88 170.475 64.32C170.475 64.7467 170.662 65.1133 171.035 65.42C171.409 65.7133 172.002 66 172.815 66.28L173.715 66.58C174.289 66.78 174.809 67.0133 175.275 67.28C175.755 67.5333 176.162 67.84 176.495 68.2C176.842 68.56 177.102 68.9733 177.275 69.44C177.462 69.8933 177.555 70.42 177.555 71.02C177.555 71.7667 177.402 72.4133 177.095 72.96C176.802 73.4933 176.422 73.9333 175.955 74.28C175.489 74.6267 174.962 74.8867 174.375 75.06C173.789 75.2333 173.215 75.32 172.655 75.32ZM192.299 72.7C191.593 73.5533 190.759 74.2067 189.799 74.66C188.839 75.1 187.766 75.32 186.579 75.32C185.513 75.32 184.519 75.1267 183.599 74.74C182.693 74.3533 181.906 73.8267 181.239 73.16C180.573 72.4933 180.046 71.7067 179.659 70.8C179.273 69.88 179.079 68.8933 179.079 67.84C179.079 66.7867 179.273 65.8067 179.659 64.9C180.046 63.98 180.573 63.1867 181.239 62.52C181.906 61.8533 182.693 61.3267 183.599 60.94C184.519 60.5533 185.513 60.36 186.579 60.36C187.726 60.36 188.733 60.56 189.599 60.96C190.479 61.36 191.259 61.94 191.939 62.7L190.039 64.54C189.613 64.0467 189.119 63.6533 188.559 63.36C188.013 63.0667 187.359 62.92 186.599 62.92C185.933 62.92 185.306 63.04 184.719 63.28C184.133 63.5067 183.619 63.8333 183.179 64.26C182.753 64.6867 182.413 65.2067 182.159 65.82C181.906 66.42 181.779 67.0933 181.779 67.84C181.779 68.5867 181.906 69.2667 182.159 69.88C182.413 70.48 182.753 70.9933 183.179 71.42C183.619 71.8467 184.133 72.18 184.719 72.42C185.306 72.6467 185.933 72.76 186.599 72.76C187.399 72.76 188.106 72.6 188.719 72.28C189.346 71.9467 189.899 71.48 190.379 70.88L192.299 72.7ZM198.647 60.68H201.727L207.107 75H204.127L202.947 71.58H197.427L196.247 75H193.267L198.647 60.68ZM202.067 69.1L200.787 65.52L200.267 63.78H200.107L199.587 65.52L198.307 69.1H202.067ZM208.783 60.68H211.923L217.683 70.28H217.843L217.683 67.52V60.68H220.363V75H217.523L211.443 64.86H211.283L211.443 67.62V75H208.783V60.68ZM229.87 75V63.24H225.87V60.68H236.57V63.24H232.57V75H229.87ZM244.665 75.32C243.598 75.32 242.605 75.1267 241.685 74.74C240.778 74.3533 239.991 73.8267 239.325 73.16C238.658 72.48 238.131 71.6867 237.745 70.78C237.371 69.86 237.185 68.88 237.185 67.84C237.185 66.8 237.371 65.8267 237.745 64.92C238.131 64 238.658 63.2067 239.325 62.54C239.991 61.86 240.778 61.3267 241.685 60.94C242.605 60.5533 243.598 60.36 244.665 60.36C245.731 60.36 246.718 60.5533 247.625 60.94C248.545 61.3267 249.338 61.86 250.005 62.54C250.671 63.2067 251.191 64 251.565 64.92C251.951 65.8267 252.145 66.8 252.145 67.84C252.145 68.88 251.951 69.86 251.565 70.78C251.191 71.6867 250.671 72.48 250.005 73.16C249.338 73.8267 248.545 74.3533 247.625 74.74C246.718 75.1267 245.731 75.32 244.665 75.32ZM244.665 72.76C245.331 72.76 245.951 72.64 246.525 72.4C247.111 72.16 247.618 71.8267 248.045 71.4C248.485 70.9733 248.825 70.46 249.065 69.86C249.318 69.2467 249.445 68.5733 249.445 67.84C249.445 67.1067 249.318 66.44 249.065 65.84C248.825 65.2267 248.485 64.7067 248.045 64.28C247.618 63.8533 247.111 63.52 246.525 63.28C245.951 63.04 245.331 62.92 244.665 62.92C243.998 62.92 243.371 63.04 242.785 63.28C242.211 63.52 241.705 63.8533 241.265 64.28C240.838 64.7067 240.498 65.2267 240.245 65.84C240.005 66.44 239.885 67.1067 239.885 67.84C239.885 68.5733 240.005 69.2467 240.245 69.86C240.498 70.46 240.838 70.9733 241.265 71.4C241.705 71.8267 242.211 72.16 242.785 72.4C243.371 72.64 243.998 72.76 244.665 72.76ZM168.275 84.68H173.115C174.249 84.68 175.269 84.8533 176.175 85.2C177.082 85.5467 177.855 86.04 178.495 86.68C179.135 87.3067 179.622 88.06 179.955 88.94C180.302 89.82 180.475 90.7867 180.475 91.84C180.475 92.9067 180.302 93.88 179.955 94.76C179.622 95.64 179.135 96.3933 178.495 97.02C177.855 97.6467 177.082 98.1333 176.175 98.48C175.269 98.8267 174.249 99 173.115 99H168.275V84.68ZM172.995 96.44C173.782 96.44 174.475 96.3333 175.075 96.12C175.675 95.8933 176.175 95.58 176.575 95.18C176.975 94.78 177.275 94.3 177.475 93.74C177.675 93.1667 177.775 92.5333 177.775 91.84C177.775 91.1467 177.675 90.52 177.475 89.96C177.275 89.3867 176.975 88.9 176.575 88.5C176.175 88.1 175.675 87.7933 175.075 87.58C174.475 87.3533 173.782 87.24 172.995 87.24H170.975V96.44H172.995ZM189.43 99.32C188.364 99.32 187.37 99.1267 186.45 98.74C185.544 98.3533 184.757 97.8267 184.09 97.16C183.424 96.48 182.897 95.6867 182.51 94.78C182.137 93.86 181.95 92.88 181.95 91.84C181.95 90.8 182.137 89.8267 182.51 88.92C182.897 88 183.424 87.2067 184.09 86.54C184.757 85.86 185.544 85.3267 186.45 84.94C187.37 84.5533 188.364 84.36 189.43 84.36C190.497 84.36 191.484 84.5533 192.39 84.94C193.31 85.3267 194.104 85.86 194.77 86.54C195.437 87.2067 195.957 88 196.33 88.92C196.717 89.8267 196.91 90.8 196.91 91.84C196.91 92.88 196.717 93.86 196.33 94.78C195.957 95.6867 195.437 96.48 194.77 97.16C194.104 97.8267 193.31 98.3533 192.39 98.74C191.484 99.1267 190.497 99.32 189.43 99.32ZM189.43 96.76C190.097 96.76 190.717 96.64 191.29 96.4C191.877 96.16 192.384 95.8267 192.81 95.4C193.25 94.9733 193.59 94.46 193.83 93.86C194.084 93.2467 194.21 92.5733 194.21 91.84C194.21 91.1067 194.084 90.44 193.83 89.84C193.59 89.2267 193.25 88.7067 192.81 88.28C192.384 87.8533 191.877 87.52 191.29 87.28C190.717 87.04 190.097 86.92 189.43 86.92C188.764 86.92 188.137 87.04 187.55 87.28C186.977 87.52 186.47 87.8533 186.03 88.28C185.604 88.7067 185.264 89.2267 185.01 89.84C184.77 90.44 184.65 91.1067 184.65 91.84C184.65 92.5733 184.77 93.2467 185.01 93.86C185.264 94.46 185.604 94.9733 186.03 95.4C186.47 95.8267 186.977 96.16 187.55 96.4C188.137 96.64 188.764 96.76 189.43 96.76ZM197.78 84.68H200.64L202.86 93.04L203.18 94.58H203.34L203.76 93.04L205.82 86.6H208.34L210.42 93.04L210.82 94.56H210.98L211.28 93.04L213.36 84.68H216.22L212.42 99H209.82L207.58 92.1L207.16 90.52H207L206.58 92.1L204.34 99H201.74L197.78 84.68ZM217.982 84.68H221.122L226.882 94.28H227.042L226.882 91.52V84.68H229.562V99H226.722L220.642 88.86H220.482L220.642 91.62V99H217.982V84.68ZM232.436 84.68H235.136V96.44H241.196V99H232.436V84.68ZM249.606 99.32C248.54 99.32 247.546 99.1267 246.626 98.74C245.72 98.3533 244.933 97.8267 244.266 97.16C243.6 96.48 243.073 95.6867 242.686 94.78C242.313 93.86 242.126 92.88 242.126 91.84C242.126 90.8 242.313 89.8267 242.686 88.92C243.073 88 243.6 87.2067 244.266 86.54C244.933 85.86 245.72 85.3267 246.626 84.94C247.546 84.5533 248.54 84.36 249.606 84.36C250.673 84.36 251.66 84.5533 252.566 84.94C253.486 85.3267 254.28 85.86 254.946 86.54C255.613 87.2067 256.133 88 256.506 88.92C256.893 89.8267 257.086 90.8 257.086 91.84C257.086 92.88 256.893 93.86 256.506 94.78C256.133 95.6867 255.613 96.48 254.946 97.16C254.28 97.8267 253.486 98.3533 252.566 98.74C251.66 99.1267 250.673 99.32 249.606 99.32ZM249.606 96.76C250.273 96.76 250.893 96.64 251.466 96.4C252.053 96.16 252.56 95.8267 252.986 95.4C253.426 94.9733 253.766 94.46 254.006 93.86C254.26 93.2467 254.386 92.5733 254.386 91.84C254.386 91.1067 254.26 90.44 254.006 89.84C253.766 89.2267 253.426 88.7067 252.986 88.28C252.56 87.8533 252.053 87.52 251.466 87.28C250.893 87.04 250.273 86.92 249.606 86.92C248.94 86.92 248.313 87.04 247.726 87.28C247.153 87.52 246.646 87.8533 246.206 88.28C245.78 88.7067 245.44 89.2267 245.186 89.84C244.946 90.44 244.826 91.1067 244.826 91.84C244.826 92.5733 244.946 93.2467 245.186 93.86C245.44 94.46 245.78 94.9733 246.206 95.4C246.646 95.8267 247.153 96.16 247.726 96.4C248.313 96.64 248.94 96.76 249.606 96.76ZM263.061 84.68H266.141L271.521 99H268.541L267.361 95.58H261.841L260.661 99H257.681L263.061 84.68ZM266.481 93.1L265.201 89.52L264.681 87.78H264.521L264.001 89.52L262.721 93.1H266.481ZM273.197 84.68H278.037C279.171 84.68 280.191 84.8533 281.097 85.2C282.004 85.5467 282.777 86.04 283.417 86.68C284.057 87.3067 284.544 88.06 284.877 88.94C285.224 89.82 285.397 90.7867 285.397 91.84C285.397 92.9067 285.224 93.88 284.877 94.76C284.544 95.64 284.057 96.3933 283.417 97.02C282.777 97.6467 282.004 98.1333 281.097 98.48C280.191 98.8267 279.171 99 278.037 99H273.197V84.68ZM277.917 96.44C278.704 96.44 279.397 96.3333 279.997 96.12C280.597 95.8933 281.097 95.58 281.497 95.18C281.897 94.78 282.197 94.3 282.397 93.74C282.597 93.1667 282.697 92.5333 282.697 91.84C282.697 91.1467 282.597 90.52 282.397 89.96C282.197 89.3867 281.897 88.9 281.497 88.5C281.097 88.1 280.597 87.7933 279.997 87.58C279.397 87.3533 278.704 87.24 277.917 87.24H275.897V96.44H277.917ZM171.315 123V111.24H167.315V108.68H178.015V111.24H174.015V123H171.315ZM179.936 108.68H182.636V114.4H188.656V108.68H191.356V123H188.656V116.96H182.636V123H179.936V108.68ZM196.932 111.24V114.56H202.672V117.12H196.932V120.44H203.312V123H194.232V108.68H203.312V111.24H196.932ZM208.189 108.68H211.109L214.069 117.3L214.589 119.14H214.749L215.309 117.3L218.389 108.68H221.309L216.089 123H213.249L208.189 108.68ZM225.756 108.68H228.836L234.216 123H231.236L230.056 119.58H224.536L223.356 123H220.376L225.756 108.68ZM229.176 117.1L227.896 113.52L227.376 111.78H227.216L226.696 113.52L225.416 117.1H229.176ZM235.893 108.68H238.593V114.4H244.613V108.68H247.313V123H244.613V116.96H238.593V123H235.893V108.68ZM254.37 108.68H257.45L262.83 123H259.85L258.67 119.58H253.15L251.97 123H248.99L254.37 108.68ZM257.79 117.1L256.51 113.52L255.99 111.78H255.83L255.31 113.52L254.03 117.1H257.79ZM264.506 108.68H267.646L273.406 118.28H273.566L273.406 115.52V108.68H276.086V123H273.246L267.166 112.86H267.006L267.166 115.62V123H264.506V108.68ZM284.359 116.42H287.779V118.74H284.359V122.14H282.039V118.74H278.639V116.42H282.039V113.02H284.359V116.42ZM298.315 108.68H301.395L306.775 123H303.795L302.615 119.58H297.095L295.915 123H292.935L298.315 108.68ZM301.735 117.1L300.455 113.52L299.935 111.78H299.775L299.255 113.52L297.975 117.1H301.735ZM308.451 123V108.68H313.491C314.171 108.68 314.805 108.793 315.391 109.02C315.991 109.233 316.511 109.54 316.951 109.94C317.391 110.34 317.738 110.82 317.991 111.38C318.245 111.927 318.371 112.533 318.371 113.2C318.371 113.88 318.245 114.5 317.991 115.06C317.738 115.607 317.391 116.08 316.951 116.48C316.511 116.88 315.991 117.193 315.391 117.42C314.805 117.633 314.171 117.74 313.491 117.74H311.151V123H308.451ZM313.531 115.18C314.238 115.18 314.771 114.98 315.131 114.58C315.491 114.18 315.671 113.72 315.671 113.2C315.671 112.947 315.625 112.7 315.531 112.46C315.451 112.22 315.318 112.013 315.131 111.84C314.958 111.653 314.738 111.507 314.471 111.4C314.205 111.293 313.891 111.24 313.531 111.24H311.151V115.18H313.531ZM320.287 123V108.68H325.327C326.007 108.68 326.641 108.793 327.227 109.02C327.827 109.233 328.347 109.54 328.787 109.94C329.227 110.34 329.574 110.82 329.827 111.38C330.081 111.927 330.207 112.533 330.207 113.2C330.207 113.88 330.081 114.5 329.827 115.06C329.574 115.607 329.227 116.08 328.787 116.48C328.347 116.88 327.827 117.193 327.227 117.42C326.641 117.633 326.007 117.74 325.327 117.74H322.987V123H320.287ZM325.367 115.18C326.074 115.18 326.607 114.98 326.967 114.58C327.327 114.18 327.507 113.72 327.507 113.2C327.507 112.947 327.461 112.7 327.367 112.46C327.287 112.22 327.154 112.013 326.967 111.84C326.794 111.653 326.574 111.507 326.307 111.4C326.041 111.293 325.727 111.24 325.367 111.24H322.987V115.18H325.367Z" fill="#1B2551"/>
<g filter="url(#filter0_d_604_375)">
<rect x="43.0317" y="40" width="102.138" height="99" fill="#E9E9EA"/>
</g>
<g clip-path="url(#clip0_604_375)">
<path d="M101.07 57.5546C101.11 57.6852 101.12 57.8223 101.101 57.9571C101.101 59.0988 101.101 60.2405 101.101 61.3817C101.101 61.7415 101.105 61.7452 101.47 61.7458C102.578 61.7458 103.686 61.7458 104.794 61.7458C105.506 61.7458 105.432 61.6646 105.432 62.3443C105.432 65.3217 105.432 68.2988 105.432 71.2756C105.432 73.5316 105.432 75.788 105.432 78.0447C105.432 78.5716 105.47 78.5315 104.935 78.5315H97.3611C97.2492 78.5315 97.1366 78.5315 97.0246 78.5315C96.8072 78.5384 96.786 78.5531 96.7849 78.7707C96.7824 79.8993 96.7824 81.0276 96.7849 82.1558C96.7849 82.278 96.7849 82.4003 96.7817 82.5246C96.7757 82.66 96.7398 82.699 96.6126 82.7069C96.5006 82.7137 96.3881 82.7127 96.2761 82.7127H92.9519C92.8399 82.7127 92.7274 82.7164 92.6154 82.7217C92.5978 82.7217 92.5804 82.7252 92.5641 82.7318C92.5479 82.7384 92.5332 82.748 92.5208 82.7602C92.5084 82.7723 92.4986 82.7867 92.492 82.8025C92.4854 82.8183 92.4821 82.8353 92.4822 82.8523C92.473 82.9877 92.4729 83.1237 92.4729 83.2596C92.4729 87.0663 92.4729 90.8726 92.4729 94.6782C92.4729 94.8142 92.473 94.9506 92.4697 95.086C92.4664 95.2214 92.4153 95.2715 92.2599 95.2799C92.1479 95.2857 92.0353 95.2836 91.9234 95.2836C90.7872 95.2836 89.651 95.2836 88.5149 95.2836C88.1392 95.2836 88.1343 95.2884 88.1343 95.6392C88.1322 96.7945 88.1322 97.9499 88.1343 99.1054C88.1343 99.1734 88.1344 99.2414 88.1403 99.3094C88.14 99.3264 88.1432 99.3433 88.1497 99.3591C88.1562 99.3749 88.1659 99.3893 88.1782 99.4014C88.1905 99.4136 88.2052 99.4233 88.2213 99.4299C88.2375 99.4365 88.2549 99.4399 88.2724 99.44C88.3811 99.4479 88.4964 99.4516 88.6084 99.4516C92.6058 99.4516 96.6032 99.4516 100.601 99.4516C100.764 99.4775 100.931 99.4545 101.08 99.3857C101.08 98.0159 101.08 96.6303 101.084 95.2451L101.076 95.2552C101.188 95.2552 101.3 95.2594 101.412 95.2594H109.308C109.378 95.2594 109.448 95.2594 109.519 95.2594C109.685 95.2509 109.718 95.222 109.727 95.0723C109.732 94.9912 109.73 94.9095 109.73 94.8284V91.5308C109.73 91.0656 109.746 91.0956 109.266 91.0956H102.797C102.223 91.0956 101.649 91.0914 101.076 91.0893L101.084 91.0982C101.084 89.8201 101.084 88.5422 101.084 87.2648C101.084 87.1831 101.084 87.1015 101.09 87.0203C101.091 86.9859 101.107 86.9533 101.133 86.9297C101.158 86.9061 101.193 86.8934 101.228 86.8944C101.34 86.8865 101.452 86.8839 101.564 86.8839H126.559C127.055 86.8839 127.04 86.8659 127.04 87.3544C127.04 88.4432 127.04 89.5306 127.04 90.6167C127.04 90.6846 127.04 90.7526 127.04 90.8206C127.03 91.0772 127.018 91.0924 126.746 91.0951C126.353 91.0988 125.961 91.0951 125.568 91.0951C123.338 91.0951 121.108 91.0951 118.878 91.0951C118.367 91.0951 118.404 91.0513 118.404 91.5592C118.404 94.0334 118.404 96.5075 118.404 98.9816C118.404 99.4922 118.35 99.4558 118.913 99.4558C121.438 99.4558 123.962 99.4558 126.487 99.4558C127.089 99.4558 127.039 99.41 127.04 99.9748C127.043 101.035 127.043 102.095 127.04 103.155C127.04 103.278 127.04 103.4 127.03 103.524C127.031 103.541 127.027 103.558 127.021 103.574C127.015 103.59 127.005 103.604 126.993 103.617C126.98 103.629 126.966 103.638 126.949 103.645C126.933 103.652 126.916 103.655 126.898 103.655C126.786 103.66 126.674 103.663 126.562 103.663H123.195C123.083 103.663 122.971 103.663 122.86 103.671C122.842 103.67 122.825 103.674 122.808 103.68C122.792 103.686 122.777 103.695 122.765 103.707C122.752 103.719 122.742 103.733 122.735 103.749C122.728 103.764 122.725 103.781 122.725 103.798C122.718 103.866 122.717 103.934 122.717 104.002C122.717 105.171 122.717 106.34 122.717 107.509C122.717 107.576 122.72 107.644 122.726 107.712C122.726 107.726 122.729 107.74 122.735 107.753C122.74 107.765 122.748 107.777 122.758 107.787C122.768 107.797 122.78 107.804 122.793 107.81C122.807 107.815 122.821 107.818 122.835 107.818C122.961 107.825 123.087 107.829 123.213 107.829C124.363 107.829 125.513 107.829 126.664 107.829C127.035 107.829 127.04 107.833 127.041 108.189C127.041 109.304 127.041 110.419 127.041 111.534C127.041 112.064 127.013 112.03 127.534 112.03H130.858C131.355 112.03 131.33 112.049 131.33 111.556C131.33 110.467 131.33 109.379 131.33 108.293C131.33 107.772 131.33 107.831 131.811 107.83C132.935 107.828 134.057 107.828 135.178 107.83C135.276 107.83 135.374 107.83 135.472 107.827C135.627 107.819 135.661 107.788 135.663 107.624C135.667 107.244 135.663 106.863 135.663 106.483C135.663 105.666 135.663 104.851 135.663 104.035C135.663 103.954 135.663 103.872 135.67 103.791C135.669 103.774 135.672 103.757 135.678 103.741C135.684 103.725 135.694 103.711 135.706 103.699C135.718 103.686 135.732 103.677 135.748 103.67C135.764 103.663 135.781 103.659 135.799 103.659C135.882 103.653 135.967 103.651 136.05 103.651H139.627C139.712 103.651 139.796 103.651 139.88 103.66C139.908 103.661 139.935 103.672 139.956 103.691C139.976 103.709 139.989 103.735 139.992 103.762C140.003 103.884 140.008 104.006 140.008 104.128C140.008 105.528 140.008 106.929 140.008 108.329C140.008 113.562 140.008 118.796 140.008 124.029C140.008 124.723 140.075 124.613 139.41 124.617C138.274 124.623 137.138 124.617 136.001 124.617C135.893 124.617 135.779 124.632 135.667 124.64C135.667 123.43 135.667 122.22 135.667 121.011C135.667 120.902 135.667 120.793 135.667 120.685C135.66 120.46 135.639 120.441 135.392 120.432C135.364 120.432 135.338 120.432 135.308 120.432H131.647C131.387 120.44 131.38 120.445 131.375 120.68C131.371 120.775 131.375 120.87 131.375 120.965V123.779C131.375 123.942 131.375 124.106 131.375 124.268C131.379 124.594 131.38 124.594 131.735 124.599C131.819 124.599 131.903 124.599 131.987 124.599C133.081 124.599 134.175 124.599 135.269 124.599C135.409 124.583 135.55 124.592 135.686 124.626C135.686 125.891 135.686 127.155 135.686 128.419C135.686 128.8 135.693 128.794 135.286 128.794H131.793C131.367 128.794 131.373 128.773 131.373 129.189C131.373 130.304 131.373 131.418 131.373 132.533C131.373 132.642 131.373 132.751 131.365 132.859C131.364 132.893 131.349 132.926 131.324 132.95C131.298 132.974 131.264 132.988 131.229 132.988C131.131 132.997 131.033 132.998 130.935 132.998H118.808C118.738 132.998 118.668 132.998 118.598 132.998C118.408 132.989 118.37 132.957 118.361 132.788C118.355 132.679 118.361 132.57 118.361 132.462C118.361 131.36 118.361 130.259 118.361 129.158C118.361 128.8 118.356 128.797 117.989 128.796C116.852 128.796 115.716 128.796 114.58 128.796C114.454 128.796 114.328 128.796 114.2 128.79C114.179 128.791 114.158 128.787 114.139 128.779C114.119 128.771 114.102 128.759 114.088 128.744C114.074 128.729 114.063 128.712 114.057 128.692C114.05 128.673 114.048 128.653 114.051 128.632C114.051 128.524 114.051 128.415 114.051 128.306C114.051 127.232 114.051 126.158 114.051 125.084C114.051 124.975 114.051 124.867 114.045 124.758C114.046 124.741 114.043 124.725 114.037 124.709C114.031 124.693 114.022 124.678 114.01 124.666C113.998 124.654 113.983 124.644 113.967 124.637C113.951 124.631 113.934 124.627 113.916 124.628C113.833 124.622 113.748 124.621 113.664 124.621H110.131C110.061 124.621 109.99 124.621 109.92 124.624C109.823 124.624 109.761 124.669 109.757 124.77C109.754 124.878 109.753 124.987 109.753 125.096V128.229C109.753 128.311 109.753 128.393 109.753 128.474C109.747 128.786 109.747 128.79 109.423 128.79C108.273 128.792 107.122 128.792 105.972 128.79C105.86 128.79 105.748 128.79 105.636 128.794C105.484 128.801 105.449 128.838 105.441 128.997C105.436 129.105 105.441 129.215 105.441 129.324C105.441 130.425 105.441 131.526 105.441 132.627C105.441 132.989 105.437 132.996 105.069 132.996C102.432 132.996 99.7946 132.996 97.1573 132.996C97.1029 132.996 97.0448 132.996 96.9888 132.996C96.8257 132.986 96.7855 132.95 96.7746 132.808C96.7686 132.726 96.7702 132.644 96.7702 132.563C96.7702 130.048 96.7702 127.533 96.7702 125.018C96.7702 124.578 96.7523 124.596 97.209 124.596C98.3875 124.596 99.5653 124.596 100.742 124.596C100.854 124.596 100.965 124.61 101.077 124.618C101.113 124.749 101.123 124.886 101.107 125.021C101.109 126.106 101.109 127.191 101.107 128.277C101.107 128.398 101.11 128.521 101.117 128.642C101.117 128.659 101.121 128.676 101.128 128.692C101.136 128.707 101.146 128.721 101.159 128.733C101.171 128.745 101.187 128.754 101.203 128.76C101.219 128.766 101.237 128.769 101.255 128.768C101.324 128.774 101.394 128.774 101.464 128.774C102.654 128.774 103.844 128.774 105.034 128.774C105.392 128.774 105.396 128.769 105.396 128.408C105.396 127.269 105.396 126.129 105.396 124.99C105.396 124.908 105.396 124.827 105.389 124.746C105.39 124.729 105.387 124.712 105.381 124.696C105.374 124.681 105.365 124.666 105.353 124.654C105.34 124.642 105.326 124.633 105.31 124.627C105.293 124.621 105.276 124.618 105.259 124.618C105.161 124.613 105.063 124.612 104.965 124.611C103.803 124.611 102.641 124.611 101.48 124.611C101.34 124.611 101.2 124.623 101.06 124.63C101.069 124.467 101.085 124.305 101.086 124.142C101.086 123.069 101.086 121.995 101.086 120.921C101.086 120.331 101.026 120.389 101.617 120.388C102.738 120.388 103.86 120.388 104.982 120.388C105.417 120.388 105.395 120.413 105.395 119.991C105.395 117.476 105.395 114.962 105.395 112.447C105.395 112.018 105.417 112.047 104.987 112.046H101.537C101.439 112.046 101.34 112.046 101.243 112.053C101.225 112.053 101.208 112.057 101.192 112.064C101.176 112.07 101.161 112.08 101.149 112.092C101.137 112.105 101.127 112.119 101.121 112.135C101.115 112.151 101.112 112.168 101.113 112.185C101.108 112.293 101.105 112.402 101.105 112.51C101.105 113.571 101.105 114.631 101.105 115.691C101.105 116.287 101.163 116.223 100.574 116.223C98.0918 116.223 95.6096 116.223 93.1264 116.223C92.3827 116.223 92.4811 116.122 92.4773 116.846C92.4724 117.852 92.4773 118.857 92.4773 119.863C92.4773 119.959 92.4773 120.054 92.4773 120.149C92.4691 120.397 92.4496 120.412 92.1761 120.423C92.106 120.423 92.0359 120.423 91.9658 120.423H84.3084C83.78 120.423 83.7979 120.455 83.7985 119.941C83.7985 118.852 83.7985 117.765 83.7985 116.679C83.7985 116.584 83.7984 116.489 83.8039 116.394C83.8137 116.248 83.8517 116.212 84.0159 116.209C84.2823 116.204 84.5487 116.206 84.815 116.206H87.5924C87.6902 116.206 87.7886 116.206 87.8864 116.206C88.0957 116.198 88.1137 116.178 88.1219 115.96C88.1219 115.907 88.1219 115.851 88.1219 115.797V108.261C88.1219 108.209 88.1219 108.152 88.1219 108.098C88.1126 107.899 88.086 107.868 87.8702 107.865C87.4896 107.859 87.1123 107.865 86.734 107.862H84.3355C84.2377 107.862 84.1393 107.862 84.0414 107.862C83.8398 107.852 83.8093 107.821 83.8006 107.614C83.7963 107.518 83.8006 107.424 83.8006 107.328C83.8006 103.482 83.8006 99.6356 83.8006 95.7899C83.8006 95.6545 83.8071 95.5191 83.818 95.3837C83.8197 95.3563 83.8317 95.3304 83.8517 95.311C83.8718 95.2916 83.8985 95.28 83.9267 95.2783C84.0387 95.2699 84.1507 95.2683 84.2627 95.2683H87.713C88.1539 95.2683 88.124 95.2836 88.124 94.869C88.124 92.3548 88.124 89.8403 88.124 87.3254C88.124 87.2985 88.124 87.2727 88.124 87.2437C88.1186 86.9329 88.118 86.9276 87.7946 86.9276C86.7144 86.9276 85.6348 86.9276 84.5546 86.9276H84.26C83.8066 86.9276 83.7985 86.9639 83.799 86.4824C83.799 85.3813 83.799 84.2803 83.799 83.1795C83.799 82.6806 83.812 82.7227 83.3097 82.7227C80.7431 82.7227 78.1767 82.7227 75.6105 82.7227C75.4576 82.7429 75.302 82.7325 75.1533 82.6922L75.1631 82.7011C75.1631 81.4237 75.1618 80.146 75.1593 78.8682C75.1593 78.8008 75.1593 78.7323 75.1664 78.6648C75.1661 78.6479 75.1694 78.6311 75.1761 78.6154C75.1827 78.5997 75.1925 78.5855 75.205 78.5736C75.2174 78.5617 75.2322 78.5524 75.2484 78.5461C75.2647 78.5399 75.2821 78.5369 75.2995 78.5373C75.4393 78.531 75.5795 78.5294 75.7198 78.5294C78.2302 78.5294 80.7406 78.5294 83.251 78.5294C83.8371 78.5294 83.7985 78.6011 83.7985 78.011C83.7985 72.7919 83.7985 67.5727 83.7985 62.3532C83.7985 61.6783 83.7441 61.7616 84.4013 61.7595C85.4809 61.7558 86.5606 61.7595 87.6407 61.7595C87.7527 61.7595 87.8652 61.7594 87.9772 61.7531C87.9948 61.7541 88.0123 61.7517 88.0288 61.7459C88.0454 61.7401 88.0605 61.7311 88.0733 61.7195C88.0861 61.7078 88.0963 61.6938 88.1034 61.6782C88.1104 61.6626 88.1141 61.6458 88.1142 61.6288C88.1191 61.5614 88.1224 61.4934 88.1224 61.4254C88.1224 60.2702 88.1224 59.1149 88.1224 57.9597C88.1224 57.5999 88.1186 57.5962 87.7533 57.5957C86.5752 57.5957 85.3972 57.5957 84.2197 57.5957C83.7995 57.5957 83.799 57.6152 83.799 57.1974C83.799 54.6684 83.799 52.1404 83.799 49.6132C83.799 49.1659 83.811 49.1943 84.2464 49.1943C85.4101 49.1943 86.5742 49.1943 87.7386 49.1943C88.1425 49.1943 88.124 49.1943 88.124 48.8081C88.124 47.6666 88.124 46.5251 88.124 45.3835C88.124 45.0147 88.124 45.0148 88.4861 45.0148C89.6922 45.0148 90.8983 45.0148 92.1044 45.0148C92.1883 45.0141 92.2721 45.018 92.3555 45.0263C92.3838 45.0281 92.4104 45.0397 92.4304 45.0591C92.4504 45.0785 92.4625 45.1043 92.4642 45.1317C92.474 45.2534 92.4778 45.3757 92.4784 45.5005C92.4784 46.8461 92.4784 48.1917 92.4784 49.5373C92.4784 53.4382 92.4784 57.3391 92.4784 61.24C92.4784 61.3622 92.4784 61.485 92.4746 61.6088C92.4664 61.7558 92.4246 61.7932 92.2636 61.8016C92.1517 61.8074 92.0392 61.8048 91.9272 61.8048H88.6035C88.1104 61.8048 88.1403 61.7853 88.1398 62.2421V70.3157C88.1398 71.4846 88.1398 72.6535 88.1398 73.8225C88.1398 73.9447 88.1423 74.0676 88.1474 74.1913C88.1471 74.2256 88.1606 74.2587 88.185 74.2836C88.2095 74.3085 88.243 74.3232 88.2784 74.3246C88.3622 74.3321 88.4464 74.3349 88.5306 74.333H92.0641C92.1479 74.333 92.2321 74.3288 92.3158 74.3214C92.3442 74.3214 92.3715 74.3107 92.3918 74.2915C92.4121 74.2723 92.4239 74.2461 92.4246 74.2186C92.4316 74.0964 92.436 73.9742 92.436 73.8499C92.436 72.8035 92.436 71.757 92.436 70.7103C92.436 70.6149 92.436 70.5201 92.436 70.4247C92.4436 70.166 92.4539 70.1513 92.7285 70.1502C93.9201 70.1502 95.1122 70.1502 96.3044 70.1502C96.4724 70.1502 96.6398 70.1344 96.8072 70.1265C96.8012 70.2219 96.7904 70.3167 96.7904 70.4116C96.7904 71.6058 96.7904 72.8 96.7904 73.9942C96.7904 74.0616 96.7904 74.1296 96.7974 74.1971C96.7976 74.2139 96.8011 74.2306 96.8079 74.2462C96.8147 74.2617 96.8246 74.2758 96.837 74.2876C96.8495 74.2995 96.8642 74.3088 96.8803 74.3152C96.8965 74.3215 96.9137 74.3247 96.9311 74.3246C96.973 74.3286 97.0151 74.3305 97.0573 74.3303C98.3036 74.3303 99.5505 74.3303 100.798 74.3303C101.074 74.3303 101.08 74.3172 101.087 74.0564C101.087 74.0153 101.087 73.9747 101.087 73.9342V70.538C101.087 70.4569 101.087 70.3752 101.081 70.2941C101.081 70.2771 101.078 70.2601 101.072 70.2442C101.066 70.2283 101.057 70.2137 101.044 70.2014C101.032 70.1891 101.018 70.1792 101.002 70.1724C100.986 70.1656 100.968 70.162 100.951 70.1618C100.825 70.1552 100.698 70.1518 100.57 70.1518C99.4633 70.1518 98.3565 70.1518 97.2497 70.1518C97.0965 70.1678 96.9416 70.1589 96.7915 70.1255C96.7822 70.0201 96.7648 69.9105 96.7648 69.803C96.7626 68.6622 96.7626 67.5217 96.7648 66.3816C96.7648 66.2868 96.7648 66.1919 96.7735 66.0971C96.7728 66.0802 96.7757 66.0633 96.782 66.0475C96.7882 66.0317 96.7977 66.0173 96.8098 66.0051C96.8219 65.993 96.8365 65.9833 96.8526 65.9768C96.8687 65.9702 96.886 65.9669 96.9034 65.9669C97.0296 65.9611 97.1551 65.9585 97.284 65.958H100.604C100.716 65.958 100.828 65.958 100.94 65.9506C100.975 65.9519 101.009 65.9396 101.035 65.9164C101.061 65.8932 101.077 65.861 101.078 65.8268C101.086 65.7462 101.087 65.6645 101.087 65.5834C101.087 64.4429 101.087 63.3024 101.087 62.162C101.087 62.094 101.087 62.026 101.084 61.9586C101.076 61.8379 101.037 61.8032 100.895 61.7963C100.783 61.7916 100.671 61.7926 100.559 61.7926H97.1975C96.7708 61.7926 96.7659 61.809 96.7664 61.3595C96.7664 60.2331 96.7664 59.1064 96.7664 57.9792C96.7664 57.5504 96.7664 57.572 97.1752 57.572L101.083 57.5688L101.07 57.5546ZM109.765 99.4859H106.82C105.025 99.4859 103.23 99.4859 101.434 99.4859C101.108 99.4859 101.108 99.4911 101.103 99.802C101.103 99.8968 101.103 99.9922 101.103 100.088V103.268C101.103 103.683 101.112 103.661 100.68 103.661H97.2725C97.16 103.661 97.048 103.661 96.936 103.668C96.9009 103.666 96.8665 103.678 96.8403 103.7C96.814 103.723 96.798 103.755 96.7958 103.789C96.7904 103.829 96.7876 103.87 96.7876 103.91C96.7876 105.134 96.7876 106.357 96.7876 107.581C96.7876 107.806 96.805 107.818 97.0187 107.825C97.1165 107.828 97.2149 107.825 97.3128 107.825H109.218C109.316 107.825 109.415 107.825 109.513 107.825C109.692 107.817 109.725 107.788 109.727 107.601C109.732 107.152 109.727 106.705 109.727 106.255C109.727 105.465 109.727 104.679 109.727 103.89C109.727 103.672 109.75 103.657 109.965 103.648C110.019 103.648 110.077 103.648 110.133 103.648H113.667C113.751 103.648 113.835 103.648 113.919 103.655C113.954 103.655 113.988 103.668 114.013 103.692C114.039 103.716 114.053 103.749 114.053 103.783C114.06 103.851 114.063 103.918 114.063 103.986C114.063 106.555 114.063 109.124 114.063 111.693C114.063 112.046 114.057 112.049 113.687 112.05C112.536 112.05 111.386 112.05 110.236 112.05C110.111 112.05 109.984 112.053 109.856 112.06C109.827 112.061 109.801 112.073 109.781 112.092C109.761 112.112 109.75 112.138 109.75 112.166C109.744 112.261 109.741 112.356 109.741 112.451C109.741 113.54 109.741 114.627 109.741 115.713C109.741 116.267 109.687 116.212 110.262 116.213C112.799 116.213 115.337 116.213 117.877 116.213C118.003 116.213 118.129 116.213 118.258 116.221C118.275 116.222 118.293 116.226 118.309 116.233C118.325 116.24 118.339 116.25 118.351 116.262C118.363 116.275 118.372 116.289 118.378 116.305C118.385 116.321 118.387 116.338 118.387 116.355C118.393 116.463 118.395 116.572 118.395 116.681C118.395 117.755 118.395 118.828 118.395 119.902C118.395 120.011 118.396 120.12 118.398 120.228C118.398 120.322 118.44 120.383 118.545 120.386C118.629 120.39 118.713 120.391 118.797 120.391C119.961 120.391 121.125 120.391 122.289 120.391C122.701 120.391 122.692 120.391 122.691 120.018V112.433C122.691 112.045 122.701 112.048 122.303 112.048C121.14 112.048 119.976 112.048 118.811 112.048C118.699 112.048 118.587 112.045 118.476 112.037C118.447 112.036 118.42 112.025 118.4 112.005C118.38 111.986 118.368 111.96 118.367 111.932C118.358 111.796 118.352 111.661 118.352 111.525C118.352 107.665 118.352 103.805 118.352 99.9447C118.352 99.4379 118.396 99.4848 117.878 99.4843C115.177 99.4846 112.472 99.4851 109.765 99.4859ZM88.1186 80.6537C88.1186 80.0284 88.1186 79.4035 88.1186 78.7781C88.1186 78.5595 88.0963 78.5452 87.8794 78.5368C87.825 78.5368 87.7674 78.5368 87.7114 78.5368H84.2192C84.135 78.5368 84.0512 78.5368 83.967 78.5431C83.9496 78.5424 83.9321 78.5451 83.9158 78.5511C83.8995 78.557 83.8846 78.5661 83.872 78.5777C83.8593 78.5894 83.8493 78.6034 83.8423 78.6189C83.8354 78.6344 83.8317 78.6511 83.8316 78.668C83.8251 78.7491 83.8235 78.8308 83.8235 78.9119C83.8235 80.0535 83.8235 81.195 83.8235 82.3365C83.8235 82.4182 83.8267 82.4999 83.8332 82.5805C83.8332 82.6075 83.8439 82.6336 83.8631 82.6532C83.8824 82.6728 83.9086 82.6845 83.9365 82.6858C84.0061 82.6922 84.0762 82.6958 84.1464 82.6964H87.7641C87.8343 82.6964 87.905 82.6964 87.9745 82.6911C87.992 82.6921 88.0094 82.6897 88.0258 82.684C88.0423 82.6783 88.0574 82.6695 88.0702 82.658C88.083 82.6466 88.0933 82.6327 88.1005 82.6173C88.1077 82.6019 88.1117 82.5853 88.1121 82.5684C88.1175 82.4867 88.1196 82.4055 88.1202 82.3239C88.1198 81.7672 88.1193 81.2105 88.1186 80.6537ZM120.568 124.616H118.886C118.788 124.616 118.69 124.616 118.592 124.616C118.448 124.622 118.415 124.652 118.406 124.779C118.401 124.86 118.402 124.942 118.402 125.023C118.402 126.138 118.402 127.252 118.402 128.366C118.402 128.447 118.402 128.529 118.407 128.61C118.415 128.736 118.451 128.768 118.593 128.774C118.663 128.777 118.733 128.774 118.804 128.774H122.294C122.364 128.774 122.434 128.774 122.505 128.77C122.643 128.762 122.684 128.727 122.694 128.606C122.7 128.539 122.699 128.47 122.699 128.402V124.977C122.699 124.91 122.699 124.842 122.695 124.774C122.697 124.754 122.695 124.734 122.688 124.714C122.681 124.695 122.671 124.677 122.657 124.662C122.642 124.647 122.625 124.636 122.606 124.628C122.586 124.62 122.566 124.616 122.545 124.616C122.461 124.612 122.377 124.611 122.292 124.611L120.568 124.616ZM118.359 122.499C118.359 121.929 118.359 121.36 118.359 120.79C118.359 120.436 118.355 120.432 117.987 120.432C116.812 120.432 115.636 120.432 114.46 120.432C114.39 120.432 114.32 120.432 114.251 120.438C114.128 120.447 114.084 120.493 114.075 120.619C114.071 120.671 114.071 120.727 114.071 120.782C114.071 121.934 114.071 123.087 114.071 124.24C114.071 124.595 114.077 124.599 114.449 124.599C115.625 124.601 116.8 124.601 117.976 124.599C118.018 124.599 118.06 124.599 118.102 124.599C118.333 124.59 118.35 124.573 118.359 124.331C118.359 124.278 118.359 124.222 118.359 124.168C118.36 123.611 118.36 123.055 118.359 122.499V122.499ZM129.146 120.392C129.79 120.392 130.434 120.392 131.077 120.392C131.305 120.392 131.317 120.373 131.326 120.163C131.326 120.11 131.326 120.054 131.326 120C131.326 118.874 131.326 117.748 131.326 116.623C131.326 116.541 131.326 116.46 131.318 116.379C131.318 116.358 131.313 116.339 131.305 116.32C131.296 116.302 131.284 116.286 131.269 116.272C131.254 116.258 131.236 116.248 131.216 116.241C131.197 116.235 131.176 116.232 131.155 116.233C131.101 116.233 131.043 116.229 130.987 116.229C129.784 116.229 128.58 116.229 127.377 116.229C127.056 116.229 127.051 116.241 127.041 116.546C127.041 116.559 127.041 116.573 127.041 116.586V120.044C127.041 120.086 127.041 120.126 127.041 120.167C127.051 120.355 127.077 120.383 127.258 120.391C127.356 120.395 127.454 120.391 127.552 120.391L129.146 120.392ZM129.15 128.778C129.752 128.778 130.354 128.778 130.956 128.778C131.322 128.778 131.326 128.774 131.327 128.418C131.33 127.265 131.33 126.112 131.327 124.959C131.327 124.891 131.327 124.823 131.321 124.755C131.322 124.738 131.319 124.721 131.313 124.705C131.307 124.69 131.298 124.675 131.286 124.663C131.274 124.65 131.259 124.641 131.243 124.634C131.227 124.627 131.21 124.624 131.193 124.623C131.109 124.619 131.025 124.616 130.941 124.616C129.765 124.616 128.589 124.616 127.413 124.616C127.046 124.616 127.041 124.62 127.04 124.973C127.038 126.127 127.038 127.28 127.04 128.433C127.04 128.485 127.04 128.542 127.045 128.595C127.056 128.73 127.092 128.767 127.219 128.774C127.303 128.779 127.387 128.778 127.471 128.778L129.15 128.778Z" fill="black"/>
<path d="M64.3472 132.999C59.4949 132.999 54.6426 132.999 49.7902 132.999C49.1591 132.999 49.2238 133.062 49.2238 132.457C49.2238 123.037 49.2238 113.618 49.2238 104.199C49.2238 103.577 49.151 103.649 49.7756 103.649C59.5085 103.649 69.2414 103.649 78.9743 103.649C79.5391 103.649 79.5049 103.594 79.5049 104.145V132.485C79.5049 133.04 79.5315 133 78.9879 133L64.3472 132.999ZM64.3537 128.778C67.7901 128.778 71.2263 128.778 74.6623 128.778C75.1983 128.778 75.1516 128.826 75.1516 128.289C75.1516 125.707 75.1516 123.124 75.1516 120.541C75.1516 116.45 75.1516 112.358 75.1516 108.265C75.1516 107.863 75.1516 107.863 74.7368 107.859H54.0794C53.526 107.859 53.5635 107.826 53.5635 108.376C53.5635 115.009 53.5635 121.642 53.5635 128.275C53.5635 128.847 53.5303 128.776 54.0865 128.776C57.5094 128.779 60.9318 128.78 64.3537 128.778Z" fill="black"/>
<path d="M49.2258 59.691C49.2258 54.9739 49.2258 50.2571 49.2258 45.5406C49.2258 44.9284 49.1578 45.0037 49.7906 45.0037C59.5101 45.0037 69.2294 45.0037 78.9486 45.0037C79.5569 45.0037 79.5063 44.9257 79.5063 45.5538C79.5063 54.9737 79.5063 64.3934 79.5063 73.813C79.5063 74.4289 79.5416 74.3541 78.935 74.3546C69.2158 74.3546 59.4965 74.3546 49.777 74.3546C49.166 74.3546 49.2247 74.4247 49.2247 73.7999C49.2232 69.0964 49.2236 64.3934 49.2258 59.691ZM64.3611 70.1329C67.7834 70.1329 71.2055 70.1329 74.6273 70.1329C75.2085 70.1329 75.1557 70.1914 75.1557 69.6403C75.1557 62.9937 75.1557 56.3472 75.1557 49.7007C75.1557 49.1939 75.2058 49.2207 74.6513 49.2207H54.0775C53.9648 49.2207 53.8527 49.2225 53.7411 49.226C53.7202 49.2242 53.6991 49.2266 53.6792 49.2331C53.6594 49.2397 53.6412 49.2502 53.6258 49.264C53.6104 49.2778 53.5982 49.2946 53.59 49.3133C53.5817 49.332 53.5776 49.3522 53.578 49.3725C53.572 49.4942 53.5693 49.6169 53.5693 49.7413C53.5693 56.3737 53.5693 63.0067 53.5693 69.6403C53.5693 70.2014 53.5312 70.1345 54.0976 70.1345C57.5181 70.1348 60.9385 70.1343 64.359 70.1329H64.3611Z" fill="black"/>
<path d="M124.897 45.0026C129.749 45.0026 134.602 45.0026 139.454 45.0026C140.064 45.0026 140.011 44.9178 140.011 45.5516C140.011 54.9708 140.011 64.3901 140.011 73.8093C140.011 74.4352 140.05 74.353 139.445 74.353C129.726 74.353 120.007 74.353 110.288 74.353C109.681 74.353 109.733 74.4225 109.733 73.7998C109.733 64.3806 109.733 54.9613 109.733 45.5421C109.733 44.9278 109.669 45.0021 110.297 45.0021C115.163 45.001 120.029 45.0012 124.897 45.0026ZM124.858 70.1339H135.125C135.265 70.1339 135.405 70.1302 135.544 70.1218C135.573 70.1218 135.601 70.1107 135.621 70.0909C135.642 70.0711 135.653 70.0443 135.653 70.0164C135.661 69.881 135.665 69.7451 135.665 69.6091C135.665 65.586 135.665 61.5626 135.665 57.5388C135.665 54.9424 135.665 52.3462 135.665 49.7502C135.665 49.6142 135.662 49.4783 135.654 49.3429C135.652 49.3154 135.64 49.2893 135.62 49.2698C135.6 49.2503 135.573 49.2388 135.545 49.2375C135.405 49.227 135.265 49.2217 135.126 49.2217C128.281 49.2217 121.436 49.2217 114.592 49.2217C114.025 49.2217 114.07 49.1864 114.07 49.7291C114.07 56.3623 114.07 62.9956 114.07 69.6292C114.07 70.1987 114.031 70.1334 114.589 70.1334C118.012 70.1341 121.434 70.1339 124.857 70.1328L124.858 70.1339Z" fill="black"/>
<path d="M62.1842 91.0998C62.1842 89.8511 62.1858 88.6027 62.189 87.3543C62.189 86.8675 62.1466 86.8844 62.6615 86.8844H66.0645C66.557 86.8844 66.5347 86.8628 66.5347 87.3586V90.6156C66.5347 91.1182 66.5244 91.0798 67.0164 91.0803C69.5927 91.0803 72.1693 91.0803 74.746 91.0803C74.8858 91.0803 75.0249 91.0908 75.1646 91.0961L75.1565 91.0882C75.1608 91.2236 75.169 91.3595 75.169 91.4949C75.169 92.5961 75.169 93.697 75.169 94.7978C75.169 94.9069 75.169 95.0154 75.1766 95.124C75.1759 95.1409 75.1788 95.1579 75.1851 95.1737C75.1915 95.1895 75.2011 95.204 75.2133 95.2161C75.2256 95.2282 75.2403 95.2378 75.2565 95.2443C75.2727 95.2507 75.2901 95.2539 75.3076 95.2536C75.4196 95.2604 75.5321 95.2604 75.6441 95.2604H78.9683C79.0803 95.2604 79.1928 95.2604 79.3048 95.2604C79.4581 95.2673 79.4902 95.3015 79.5011 95.4622C79.506 95.5302 79.5049 95.5981 79.5049 95.6661V99.0507C79.5049 99.1323 79.5049 99.2145 79.5 99.2957C79.4886 99.4405 79.4494 99.4727 79.2825 99.4795C79.1988 99.4832 79.1146 99.4795 79.0303 99.4795C76.4496 99.4795 73.8688 99.4795 71.2881 99.4795C70.8266 99.4795 70.8206 99.5385 70.8211 99.0459C70.8211 97.9448 70.8211 96.8436 70.8211 95.7425C70.8211 95.2609 70.8364 95.281 70.3319 95.281C69.1957 95.281 68.0596 95.281 66.9234 95.281C66.5369 95.281 66.5336 95.2857 66.5325 95.6714C66.5325 96.7862 66.5325 97.9009 66.5325 99.0154C66.5325 99.5454 66.5412 99.4769 66.0536 99.4779C64.9175 99.4811 63.7815 99.4811 62.6457 99.4779C62.5337 99.4779 62.4212 99.4748 62.3097 99.4679C62.2954 99.4679 62.2813 99.4652 62.2681 99.4599C62.255 99.4546 62.2429 99.4468 62.2328 99.4371C62.2227 99.4273 62.2147 99.4157 62.2093 99.4029C62.2038 99.3901 62.201 99.3764 62.201 99.3626C62.1918 99.2414 62.1869 99.1191 62.1869 98.9969C62.1869 97.8958 62.1869 96.7948 62.1869 95.694C62.1869 95.2978 62.2238 95.2767 61.784 95.2773C60.6203 95.2773 59.4563 95.2773 58.2918 95.2773C58.2636 95.2773 58.2375 95.2773 58.2076 95.2773C57.8988 95.2852 57.8972 95.2857 57.8907 95.5697C57.8907 95.6645 57.8907 95.7599 57.8907 95.8553C57.8907 96.9153 57.8907 97.9755 57.8907 99.0359C57.8907 99.1444 57.8858 99.253 57.8776 99.361C57.8761 99.3882 57.8641 99.4139 57.844 99.4329C57.8238 99.452 57.797 99.463 57.7689 99.4637C57.6716 99.4722 57.5732 99.4753 57.4754 99.4753H49.6473C49.2243 99.4753 49.2222 99.5048 49.2222 99.0838C49.2222 97.942 49.2222 96.8004 49.2222 95.6593C49.2222 95.5776 49.2222 95.4959 49.227 95.4143C49.2319 95.3231 49.2738 95.2599 49.3776 95.2562C49.4815 95.2525 49.6021 95.252 49.7141 95.252C50.8644 95.252 52.0145 95.252 53.1645 95.252C53.5515 95.252 53.5352 95.2578 53.5352 94.8969C53.5352 93.8231 53.5352 92.7494 53.5352 91.6757C53.5352 91.5803 53.5352 91.4849 53.5352 91.3901C53.5406 91.0782 53.5412 91.0782 53.8668 91.0713H53.9087L62.1977 91.075L62.2026 94.7409C62.2026 94.8495 62.2026 94.9585 62.2059 95.0671C62.2124 95.2077 62.2429 95.2393 62.3733 95.2483C62.4429 95.253 62.5131 95.252 62.5832 95.252H66.1167C66.2004 95.252 66.2846 95.252 66.3684 95.2451C66.3857 95.2455 66.403 95.2423 66.4191 95.2358C66.4351 95.2294 66.4496 95.2197 66.4616 95.2075C66.4736 95.1953 66.4829 95.1809 66.4888 95.165C66.4948 95.1492 66.4973 95.1323 66.4961 95.1155C66.5005 95.0481 66.5021 94.9801 66.5021 94.9122C66.5021 93.7576 66.5021 92.6035 66.5021 91.4496C66.5021 91.368 66.4989 91.2868 66.4918 91.2057C66.4909 91.1788 66.4798 91.1532 66.4607 91.1337C66.4415 91.1143 66.4156 91.1024 66.3879 91.1003C66.3045 91.0924 66.2207 91.0887 66.1368 91.0893C64.8187 91.0949 63.5012 91.0984 62.1842 91.0998Z" fill="black"/>
<path d="M101.08 57.5646C101.08 56.2864 101.081 55.0084 101.083 53.7306C101.083 53.6779 101.083 53.6215 101.08 53.5678C101.071 53.4435 101.037 53.4134 100.89 53.4097C100.778 53.405 100.666 53.4097 100.554 53.4097H97.1873C96.7725 53.4097 96.7627 53.4414 96.7627 53.0167C96.7627 50.4744 96.7627 47.9322 96.7627 45.3899C96.7627 45.3087 96.7627 45.2271 96.7714 45.1459C96.7711 45.1289 96.7743 45.1121 96.7808 45.0963C96.7873 45.0805 96.797 45.0661 96.8093 45.054C96.8216 45.0419 96.8363 45.0323 96.8524 45.0257C96.8686 45.0192 96.886 45.0158 96.9035 45.0158C97.0014 45.0111 97.0992 45.0079 97.1976 45.0079H104.983C105.053 45.0079 105.123 45.0079 105.193 45.0079C105.403 45.0169 105.431 45.0385 105.432 45.2524C105.436 45.9326 105.432 46.6122 105.432 47.2918C105.432 47.8082 105.432 48.3247 105.432 48.8413C105.433 48.9229 105.43 49.0046 105.421 49.0858C105.418 49.12 105.402 49.152 105.377 49.1756C105.351 49.1992 105.317 49.2128 105.282 49.2138C105.17 49.2233 105.058 49.2233 104.946 49.2238H101.579C101.063 49.2238 101.1 49.2091 101.1 49.6907C101.1 50.7648 101.1 51.8388 101.1 52.9129C101.1 52.9941 101.1 53.0757 101.1 53.1574C101.109 53.3618 101.132 53.3892 101.352 53.3903C102.068 53.3945 102.783 53.3903 103.499 53.3903C104.018 53.3903 104.536 53.3903 105.056 53.3903C105.139 53.3895 105.223 53.3937 105.307 53.4029C105.335 53.4059 105.36 53.4179 105.38 53.4371C105.4 53.4562 105.412 53.4813 105.415 53.5083C105.425 53.5893 105.429 53.6707 105.428 53.7522C105.428 54.9075 105.428 56.0628 105.428 57.2184C105.428 57.5788 105.424 57.583 105.057 57.5835C103.795 57.5856 102.532 57.5856 101.27 57.5835C101.201 57.5792 101.132 57.5703 101.064 57.5567L101.08 57.5646Z" fill="black"/>
<path d="M88.1486 132.999H84.3204C84.1943 132.999 84.0682 132.999 83.9426 132.989C83.9072 132.988 83.8737 132.973 83.8487 132.949C83.8237 132.925 83.8091 132.892 83.8078 132.858C83.7983 132.763 83.7945 132.668 83.7964 132.573C83.7964 130.059 83.7964 127.545 83.7964 125.031C83.7964 124.963 83.7964 124.895 83.7964 124.827C83.8062 124.635 83.8285 124.611 84.0138 124.602C84.084 124.598 84.1541 124.602 84.2242 124.602H87.7153C88.1551 124.602 88.1366 124.589 88.1366 124.995C88.1366 126.123 88.1366 127.251 88.1366 128.379C88.1366 128.79 88.1246 128.781 88.5519 128.781C89.7298 128.781 90.9076 128.781 92.0854 128.781C92.4714 128.781 92.4747 128.784 92.4752 129.167C92.4752 130.322 92.4752 131.477 92.4752 132.632C92.4752 132.995 92.4709 133.001 92.1034 133.001C90.7838 133.001 89.4656 133.001 88.1486 132.999Z" fill="black"/>
<path d="M49.2255 82.6895C49.2255 81.4672 49.2255 80.2447 49.2255 79.022C49.2255 78.8998 49.2255 78.7776 49.2337 78.6559C49.2332 78.639 49.2363 78.6222 49.2428 78.6064C49.2493 78.5907 49.2591 78.5765 49.2714 78.5646C49.2838 78.5526 49.2985 78.5433 49.3148 78.537C49.331 78.5308 49.3483 78.5279 49.3658 78.5284C49.4636 78.5226 49.562 78.5205 49.6599 78.5205H57.5222C57.8892 78.5257 57.8924 78.5257 57.8929 78.8835C57.8929 80.0377 57.8929 81.1922 57.8929 82.3471C57.8929 82.4282 57.893 82.5099 57.8832 82.591C57.8824 82.6184 57.8712 82.6446 57.8517 82.6645C57.8323 82.6844 57.8059 82.6967 57.7777 82.699C57.6527 82.7101 57.5266 82.7153 57.401 82.7153C56.2938 82.7153 55.1867 82.7153 54.0795 82.7153C53.5359 82.7153 53.5658 82.6721 53.5658 83.2311V86.4097C53.5658 86.5182 53.5658 86.6273 53.5592 86.7358C53.5505 86.8633 53.5049 86.9081 53.3831 86.9165C53.3135 86.9218 53.2429 86.9202 53.1733 86.9202C51.9817 86.9202 50.7903 86.9202 49.599 86.9202C49.2304 86.9202 49.2261 86.9165 49.2255 86.5609C49.223 85.2708 49.223 83.9803 49.2255 82.6895Z" fill="black"/>
<path d="M116.228 78.5199C118.232 78.5199 120.235 78.5199 122.239 78.5199C122.758 78.5199 122.714 78.4857 122.714 78.9809C122.714 80.0673 122.714 81.1537 122.714 82.2401C122.714 82.3218 122.714 82.4034 122.714 82.4846C122.707 82.6864 122.686 82.7053 122.463 82.7132C122.364 82.7169 122.267 82.7132 122.168 82.7132H110.189C109.696 82.7132 109.733 82.738 109.733 82.2712C109.733 81.1711 109.733 80.0712 109.733 78.9715C109.733 78.4757 109.702 78.5189 110.218 78.5184C112.221 78.5187 114.225 78.5192 116.228 78.5199Z" fill="black"/>
<path d="M135.674 82.6901C136.921 82.6901 138.169 82.6901 139.416 82.699C140.064 82.7032 140.008 82.6 140.009 83.2522C140.012 84.3526 140.012 85.4533 140.009 86.554C140.009 86.9165 140.004 86.9197 139.642 86.9202C138.478 86.9202 137.315 86.9202 136.151 86.9202C135.635 86.9202 135.682 86.8854 135.681 87.386C135.681 88.5003 135.681 89.6146 135.681 90.7284C135.681 91.0914 135.677 91.0945 135.319 91.0972C134.113 91.0972 132.907 91.0972 131.702 91.0972C131.618 91.0974 131.534 91.0933 131.451 91.0851C131.422 91.0828 131.395 91.0705 131.375 91.0506C131.355 91.0306 131.343 91.0043 131.342 90.9765C131.333 90.8957 131.328 90.8144 131.328 90.7331C131.328 89.5782 131.328 88.4235 131.328 87.269C131.327 87.1876 131.33 87.1061 131.338 87.0251C131.341 86.9908 131.356 86.9585 131.381 86.9344C131.407 86.9104 131.44 86.8961 131.476 86.8944C131.587 86.8855 131.7 86.8855 131.812 86.8855H135.05C135.148 86.8855 135.246 86.8855 135.344 86.8855C135.646 86.8781 135.656 86.8691 135.663 86.5925C135.663 86.4971 135.663 86.4023 135.663 86.307C135.663 85.2062 135.663 84.1057 135.663 83.0056C135.663 82.9003 135.674 82.7902 135.681 82.6821L135.674 82.6901Z" fill="black"/>
<path d="M75.1648 91.0982C75.1608 90.1878 75.1572 89.2777 75.1539 88.368C75.1539 87.9602 75.1539 87.5524 75.1539 87.1452C75.1539 86.9571 75.1219 86.9276 74.9397 86.9234C74.7016 86.9181 74.4635 86.9234 74.2249 86.9234H71.3649C71.2529 86.9234 71.1404 86.9234 71.0284 86.9207C70.8757 86.9144 70.842 86.8786 70.83 86.7216C70.8257 86.6689 70.8262 86.6125 70.8262 86.5583C70.8262 85.3897 70.8262 84.2213 70.8262 83.0531C70.8262 83.012 70.8262 82.9714 70.8262 82.9308C70.8387 82.7259 70.8583 82.7027 71.0795 82.7022C72.089 82.6995 73.0985 82.7022 74.108 82.7022C74.4586 82.7022 74.8087 82.699 75.1594 82.6969L75.149 82.6879C75.1561 82.8228 75.1692 82.9572 75.1692 83.092C75.1692 84.2322 75.1692 85.3718 75.1692 86.5119C75.1692 86.8844 75.173 86.8881 75.5687 86.8886C76.7168 86.8886 77.8651 86.8886 79.0136 86.8886C79.5154 86.8886 79.5029 86.8644 79.5029 87.3465C79.5029 88.4455 79.5029 89.5445 79.5029 90.6441C79.5029 90.7494 79.4985 90.8606 79.4909 90.9686C79.4898 91.0029 79.4748 91.0354 79.4491 91.059C79.4235 91.0827 79.3893 91.0956 79.3539 91.0951C79.2996 91.1003 79.2425 91.1009 79.1865 91.1009L75.1539 91.0945L75.1648 91.0982Z" fill="black"/>
<path d="M135.65 99.4859H131.864C131.766 99.4859 131.668 99.4859 131.57 99.4859C131.363 99.4785 131.34 99.4542 131.33 99.2403C131.326 99.1724 131.33 99.1044 131.33 99.0364C131.33 97.922 131.33 96.8076 131.33 95.6935C131.33 95.6124 131.33 95.5302 131.334 95.4491C131.345 95.3026 131.382 95.272 131.549 95.2652C131.633 95.2615 131.717 95.2652 131.801 95.2652C134.381 95.2652 136.96 95.2652 139.54 95.2652C140.022 95.2652 140.011 95.1993 140.011 95.7341V98.9953C140.011 99.5538 140.03 99.4859 139.522 99.4869C138.229 99.488 136.94 99.4859 135.65 99.4859Z" fill="black"/>
<path d="M135.683 82.6806C135.563 82.7196 135.436 82.7312 135.31 82.7143C132.691 82.7143 130.071 82.7143 127.451 82.7143C127.354 82.7143 127.255 82.7143 127.157 82.7064C127.14 82.707 127.122 82.7041 127.106 82.6981C127.089 82.692 127.074 82.6829 127.062 82.6712C127.049 82.6595 127.039 82.6454 127.032 82.6298C127.025 82.6143 127.021 82.5975 127.02 82.5805C127.015 82.4993 127.013 82.4177 127.013 82.3365C127.013 81.1957 127.013 80.0552 127.013 78.9151C127.013 78.8624 127.013 78.8066 127.013 78.7523C127.021 78.5473 127.041 78.5289 127.263 78.5205C127.346 78.5173 127.431 78.5205 127.515 78.5205C130.065 78.5205 132.614 78.5205 135.164 78.5205C135.738 78.5205 135.678 78.4678 135.679 79.0247C135.679 80.247 135.677 81.469 135.673 82.6906L135.683 82.6806Z" fill="black"/>
<path d="M62.1885 80.6248C62.1885 80.068 62.1885 79.5115 62.1885 78.9551C62.1885 78.8603 62.1885 78.7649 62.1934 78.6701C62.1982 78.5753 62.2586 78.5278 62.3565 78.5242C62.4108 78.5242 62.4684 78.5205 62.5244 78.5205C63.7425 78.5205 64.9609 78.5205 66.1797 78.5205C66.2498 78.5205 66.3199 78.5205 66.3895 78.5273C66.4247 78.5276 66.4584 78.5412 66.4834 78.5652C66.5084 78.5892 66.5227 78.6218 66.5233 78.6559C66.5309 78.7365 66.5347 78.8182 66.5347 78.8993C66.5347 80.0401 66.5347 81.1804 66.5347 82.3202C66.5347 82.3729 66.5347 82.4287 66.5347 82.483C66.5238 82.6827 66.4983 82.7122 66.2803 82.7132C65.5942 82.7169 64.9076 82.7132 64.2216 82.7132H62.6669C62.5549 82.7132 62.4429 82.7132 62.3314 82.7043C62.314 82.7047 62.2966 82.7017 62.2804 82.6955C62.2642 82.6892 62.2494 82.6799 62.2371 82.668C62.2247 82.6561 62.2149 82.6418 62.2083 82.6262C62.2017 82.6105 62.1985 82.5937 62.1988 82.5768C62.1934 82.4819 62.1912 82.3866 62.1912 82.2917C62.1894 81.7368 62.1885 81.1811 62.1885 80.6248Z" fill="black"/>
<path d="M101.086 95.2478C100.996 95.2845 100.896 95.2974 100.799 95.2852C99.5815 95.2852 98.3643 95.2852 97.1474 95.2852C96.7706 95.2852 96.7668 95.2799 96.7668 94.9332C96.7639 93.7675 96.7639 92.6014 96.7668 91.4349C96.7676 91.3537 96.7726 91.2727 96.7821 91.192C96.7845 91.1648 96.7973 91.1394 96.8181 91.1209C96.8388 91.1024 96.8659 91.0921 96.894 91.0919C96.9636 91.0861 97.0332 91.0819 97.1033 91.0819C98.3765 91.0819 99.6496 91.0819 100.923 91.0819C100.978 91.0845 101.034 91.0899 101.089 91.0982L101.081 91.0893C101.089 91.1693 101.104 91.2473 101.104 91.3295C101.104 92.5452 101.104 93.7606 101.104 94.9759C101.104 95.0697 101.089 95.1635 101.08 95.2573L101.086 95.2478Z" fill="black"/>
<path d="M64.3496 124.616C62.3447 124.616 60.3402 124.616 58.3361 124.616C57.843 124.616 57.8528 124.675 57.8528 124.157V112.501C57.8528 112.016 57.8246 112.029 58.3301 112.029H70.3984C70.8964 112.029 70.8561 112.029 70.8561 112.475C70.8561 116.373 70.8561 120.272 70.8561 124.171C70.8561 124.645 70.8866 124.616 70.4039 124.616L64.3496 124.616Z" fill="black"/>
<path d="M57.8526 59.6509V53.8592C57.8526 53.3608 57.8232 53.3887 58.3272 53.3887H70.3623C70.4324 53.3887 70.5031 53.3887 70.5727 53.3887C70.838 53.3971 70.8499 53.4092 70.8565 53.6727C70.8565 53.7543 70.8565 53.836 70.8565 53.9171C70.8565 57.765 70.8565 61.6125 70.8565 65.4596C70.8565 66.0181 70.9108 65.9685 70.3444 65.9685C66.3466 65.9685 62.3488 65.9685 58.3511 65.9685C58.281 65.9685 58.2109 65.9685 58.1407 65.9685C57.876 65.9617 57.8586 65.949 57.8542 65.6861C57.8493 65.36 57.8542 65.0339 57.8542 64.7078L57.8526 59.6509Z" fill="black"/>
<path d="M124.861 65.9696C122.857 65.9696 120.852 65.9696 118.848 65.9696C118.338 65.9696 118.358 66.0139 118.358 65.5149C118.358 61.6295 118.358 57.7441 118.358 53.8586C118.358 53.365 118.322 53.3887 118.833 53.3881C122.855 53.3881 126.878 53.3881 130.901 53.3881C131.401 53.3881 131.365 53.3771 131.365 53.8249C131.365 57.7237 131.365 61.6225 131.365 65.5212C131.365 65.9954 131.397 65.9686 130.914 65.9686L124.861 65.9696Z" fill="black"/>
</g>
<defs>
<filter id="filter0_d_604_375" x="0.0317383" y="0" width="202.138" height="199" filterUnits="userSpaceOnUse" color-interpolation-filters="sRGB">
<feFlood flood-opacity="0" result="BackgroundImageFix"/>
<feColorMatrix in="SourceAlpha" type="matrix" values="0 0 0 0 0 0 0 0 0 0 0 0 0 0 0 0 0 0 127 0" result="hardAlpha"/>
<feOffset dx="7" dy="10"/>
<feGaussianBlur stdDeviation="25"/>
<feColorMatrix type="matrix" values="0 0 0 0 0.910906 0 0 0 0 0.886736 0 0 0 0 0.941667 0 0 0 1 0"/>
<feBlend mode="darken" in2="BackgroundImageFix" result="effect1_dropShadow_604_375"/>
<feBlend mode="normal" in="SourceGraphic" in2="effect1_dropShadow_604_375" result="shape"/>
</filter>
<clipPath id="clip0_604_375">
<rect width="90.7894" height="88" fill="white" transform="translate(49.2217 45)"/>
</clipPath>
</defs>
</svg>
