<svg width="139" height="28" viewBox="0 0 139 28" fill="none" xmlns="http://www.w3.org/2000/svg">
<g clip-path="url(#clip0_601_246)" filter="url(#filter0_d_601_246)">
<path d="M6.25907 0.0698242C7.47572 0.0698242 8.31299 0.325419 8.77088 0.836613L13.6504 15.1272H13.7226L18.674 0.627734C19.1681 0.25756 20.0055 0.0719389 21.1861 0.0708813C22.1979 0.0708813 22.9268 0.239134 23.3726 0.57564V0.628525L17.0659 19.0968C16.7403 19.4215 16.054 19.6709 15.007 19.8451L13.6517 20.0019C11.3387 19.8163 10.1822 19.3637 10.1822 18.6441L4.00146 0.576439V0.523553C4.32594 0.221068 5.07848 0.0698242 6.25907 0.0698242Z" fill="#1B2551"/>
<path d="M36.6731 0.0871582C38.8752 0.0979683 41.0134 0.800751 42.7629 2.08875C44.546 3.67856 45.5942 5.13493 45.9075 6.45786C46.1992 7.18613 46.3581 7.95749 46.3772 8.73787V19.9129L46.2869 19.9999C44.5038 19.9999 43.263 19.1644 42.5645 17.4933C42.4318 17.0346 42.3707 16.5595 42.3833 16.0835V13.8206H30.9805V16.0835C30.9805 17.9285 30.1131 19.1701 28.3784 19.8082C27.9517 19.9386 27.5064 20.0033 27.0588 19.9999L26.9688 19.9129V9.57446C26.9688 5.83746 28.788 2.98871 32.4264 1.02819C33.7552 0.424007 35.2037 0.103031 36.6731 0.0871582ZM30.9805 8.92931V9.95627H42.3833V9.20799C42.3833 7.49056 41.6063 6.01682 40.0524 4.78678C38.9922 4.07922 37.9501 3.72527 36.9262 3.72491H36.3838C34.6492 3.72491 33.1553 4.543 31.902 6.17917C31.3259 6.9911 31.0059 7.94618 30.9805 8.92931Z" fill="#1B2551"/>
<path d="M50.2085 0.0170439C52.0034 0.0170439 53.2625 0.794584 53.9855 2.34967C54.0803 2.63073 54.129 2.92432 54.1299 3.21984V8.00567H64.6477V3.21984C64.6477 1.90889 65.4489 0.922561 67.0513 0.260829C67.5697 0.094621 68.1131 0.0122454 68.6594 0.0170439L68.7143 0.051943V19.9126C68.7143 19.9705 68.6663 19.9996 68.5697 19.9996C66.7747 19.9996 65.5158 19.2221 64.7929 17.667C64.6978 17.3859 64.649 17.0922 64.6482 16.7965V11.471H54.1296V16.7971C54.1296 18.0969 53.3286 19.0833 51.7265 19.7563C51.208 19.9227 50.6644 20.0051 50.1179 20.0001L50.063 19.9652V0.0873747C50.0637 0.0404859 50.1122 0.0170439 50.2085 0.0170439Z" fill="#1B2551"/>
<path d="M82.3398 0.0871582C84.542 0.0979687 86.6803 0.800749 88.4299 2.08875C90.213 3.67856 91.2612 5.13493 91.5745 6.45786C91.8661 7.18617 92.025 7.9575 92.0442 8.73787V19.9129L91.9539 19.9999C90.1708 19.9999 88.9299 19.1644 88.2312 17.4933C88.0987 17.0346 88.0378 16.5594 88.0503 16.0835V13.8206H76.6475V16.0835C76.6475 17.9285 75.78 19.1701 74.0451 19.8082C73.6185 19.9386 73.1733 20.0033 72.7258 19.9999L72.6357 19.9129V9.57446C72.6357 5.83746 74.4549 2.98871 78.0931 1.02819C79.4219 0.424007 80.8705 0.103031 82.3398 0.0871582ZM76.6475 8.92931V9.95627H88.0503V9.20799C88.0503 7.49056 87.2733 6.01682 85.7194 4.78678C84.6588 4.07922 83.6167 3.72527 82.5929 3.72492H82.0505C80.3159 3.72492 78.822 4.543 77.5688 6.17918C76.9927 6.99112 76.6728 7.9462 76.6475 8.92931Z" fill="#1B2551"/>
<path d="M105.995 0C108.315 0.00982593 110.567 0.749458 112.41 2.10629C114.29 3.789 115.398 5.33237 115.735 6.73639C116.051 7.5017 116.223 8.31519 116.241 9.13855V19.8956L116.133 20C114.254 20 112.947 19.1181 112.212 17.3543C112.067 16.8735 112 16.3741 112.013 15.8736V9.86939C112.013 8.05906 111.194 6.50415 109.555 5.20466C108.435 4.45021 107.333 4.07306 106.248 4.07324H105.688C103.844 4.07324 102.26 4.94351 100.935 6.68403C100.328 7.53704 99.9897 8.54012 99.9592 9.57351V15.8747C99.9592 17.8243 99.0436 19.1355 97.2124 19.8083C96.7677 19.9394 96.3048 20.004 95.8398 20L95.73 19.8956V10.0262C95.73 6.08082 97.6516 3.06373 101.495 0.974884C102.907 0.347707 104.44 0.0154627 105.995 0Z" fill="#1B2551"/>
<path d="M121.392 11.9451V10.8216C121.392 10.3784 121.575 9.95335 121.9 9.63997C122.226 9.32658 122.667 9.15052 123.127 9.15052H135V10.5456C135 10.9167 134.847 11.2727 134.574 11.5352C134.302 11.7976 133.932 11.9451 133.547 11.9451H121.392Z" fill="#1B2551"/>
<path d="M126.745 3.99438H127.912C128.372 3.99438 128.813 4.17044 129.138 4.48383C129.464 4.79722 129.646 5.22226 129.646 5.66546V17.1012H128.198C127.813 17.1012 127.443 16.9538 127.171 16.6913C126.898 16.4288 126.745 16.0729 126.745 15.7017V3.99438H126.745Z" fill="#1B2551"/>
</g>
<defs>
<filter id="filter0_d_601_246" x="0" y="0" width="139" height="28" filterUnits="userSpaceOnUse" color-interpolation-filters="sRGB">
<feFlood flood-opacity="0" result="BackgroundImageFix"/>
<feColorMatrix in="SourceAlpha" type="matrix" values="0 0 0 0 0 0 0 0 0 0 0 0 0 0 0 0 0 0 127 0" result="hardAlpha"/>
<feOffset dy="4"/>
<feGaussianBlur stdDeviation="2"/>
<feComposite in2="hardAlpha" operator="out"/>
<feColorMatrix type="matrix" values="0 0 0 0 0 0 0 0 0 0 0 0 0 0 0 0 0 0 0.25 0"/>
<feBlend mode="normal" in2="BackgroundImageFix" result="effect1_dropShadow_601_246"/>
<feBlend mode="normal" in="SourceGraphic" in2="effect1_dropShadow_601_246" result="shape"/>
</filter>
<clipPath id="clip0_601_246">
<rect width="131" height="20" fill="white" transform="translate(4)"/>
</clipPath>
</defs>
</svg>
