<svg width="248" height="139" viewBox="0 0 248 139" fill="none" xmlns="http://www.w3.org/2000/svg">
<path d="M4.27639 15.1326C6.57966 15.1326 8.16472 15.6182 9.03156 16.5895L18.2691 43.7416H18.4058L27.7794 16.1926C28.7149 15.4893 30.3001 15.1366 32.5351 15.1346C34.4507 15.1346 35.8305 15.4543 36.6745 16.0936V16.1941L24.7351 51.2838C24.1187 51.9007 22.8195 52.3747 20.8374 52.7056L18.2717 53.0035C13.8928 52.6508 11.7033 51.7909 11.7033 50.4238L0.00244141 16.0951V15.9947C0.616717 15.4199 2.04136 15.1326 4.27639 15.1326Z" fill="#E9E9EA"/>
<path d="M61.8545 15.1658C66.0233 15.1863 70.0712 16.5216 73.3834 18.9688C76.7589 21.9894 78.7433 24.7565 79.3364 27.2701C79.8887 28.6538 80.1896 30.1194 80.2256 31.6021V52.8347L80.0546 53C76.6791 53 74.3301 51.4125 73.0076 48.2374C72.7564 47.3659 72.6408 46.4631 72.6646 45.5587V41.2594H51.0777V45.5587C51.0777 49.0643 49.4356 51.4234 46.1515 52.6358C45.3438 52.8834 44.5007 53.0064 43.6534 53L43.4829 52.8347V33.1916C43.4829 26.0913 46.9269 20.6787 53.8149 16.9537C56.3306 15.8058 59.0728 15.1959 61.8545 15.1658ZM51.0777 31.9659V33.9171H72.6646V32.4954C72.6646 29.2322 71.1937 26.4321 68.2519 24.0951C66.2449 22.7507 64.2721 22.0782 62.3337 22.0775H61.3068C58.023 22.0775 55.1948 23.6319 52.8223 26.7406C51.7316 28.2833 51.1258 30.0979 51.0777 31.9659Z" fill="#E9E9EA"/>
<path d="M87.4786 15.0321C90.8767 15.0321 93.2601 16.5094 94.629 19.4641C94.8085 19.9981 94.9007 20.5559 94.9024 21.1174V30.2105H114.814V21.1174C114.814 18.6266 116.331 16.7526 119.364 15.4953C120.346 15.1795 121.374 15.023 122.409 15.0321L122.513 15.0984V52.8337C122.513 52.9437 122.422 52.999 122.239 52.999C118.841 52.999 116.457 51.5216 115.089 48.567C114.909 48.0329 114.816 47.4748 114.815 46.9131V36.7947H94.9018V46.9141C94.9018 49.3838 93.3854 51.258 90.3525 52.5368C89.3708 52.8528 88.3417 53.0093 87.3071 53L87.2031 52.9336V15.1657C87.2045 15.0767 87.2963 15.0321 87.4786 15.0321Z" fill="#E9E9EA"/>
<path d="M148.307 15.1658C152.476 15.1863 156.524 16.5216 159.836 18.9688C163.212 21.9894 165.196 24.7565 165.79 27.2701C166.342 28.6539 166.642 30.1194 166.679 31.6021V52.8347L166.508 53C163.132 53 160.783 51.4125 159.46 48.2374C159.209 47.3659 159.094 46.4631 159.118 45.5587V41.2594H137.531V45.5587C137.531 49.0643 135.889 51.4234 132.604 52.6358C131.797 52.8835 130.954 53.0064 130.106 53L129.936 52.8347V33.1916C129.936 26.0913 133.38 20.6787 140.268 16.9537C142.783 15.8058 145.525 15.1959 148.307 15.1658ZM137.531 31.9659V33.9171H159.118V32.4954C159.118 29.2322 157.647 26.4321 154.705 24.0951C152.697 22.7507 150.724 22.0782 148.786 22.0775H147.759C144.476 22.0775 141.647 23.6319 139.275 26.7406C138.184 28.2833 137.579 30.098 137.531 31.9659Z" fill="#E9E9EA"/>
<path d="M193.09 15C197.481 15.0187 201.746 16.424 205.235 19.002C208.793 22.1991 210.891 25.1315 211.53 27.7991C212.128 29.2532 212.452 30.7989 212.488 32.3632V52.8016L212.283 53C208.725 53 206.25 51.3244 204.859 47.9732C204.585 47.0597 204.458 46.1108 204.483 45.1599V33.7518C204.483 30.3122 202.932 27.3579 199.83 24.8889C197.709 23.4554 195.622 22.7388 193.569 22.7392H192.509C189.019 22.7392 186.02 24.3927 183.511 27.6997C182.363 29.3204 181.721 31.2262 181.664 33.1897V45.1619C181.664 48.8661 179.93 51.3574 176.464 52.6358C175.622 52.8848 174.745 53.0077 173.865 53L173.657 52.8016V34.0497C173.657 26.5536 177.295 20.8211 184.571 16.8523C187.244 15.6606 190.147 15.0294 193.09 15Z" fill="#E9E9EA"/>
<path d="M222.239 37.6956V35.561C222.239 34.7189 222.585 33.9113 223.201 33.3159C223.817 32.7204 224.652 32.3859 225.523 32.3859H248V35.0365C248 35.7417 247.71 36.418 247.194 36.9167C246.678 37.4154 245.979 37.6956 245.249 37.6956H222.239Z" fill="#E9E9EA"/>
<path d="M232.373 22.5894H234.581C235.452 22.5894 236.288 22.9239 236.904 23.5193C237.52 24.1147 237.866 24.9223 237.866 25.7644V47.4923H235.124C234.395 47.4923 233.695 47.2122 233.179 46.7135C232.663 46.2148 232.374 45.5385 232.374 44.8332V22.5894H232.373Z" fill="#E9E9EA"/>
</svg>
